<svg xmlns="http://www.w3.org/2000/svg" viewBox="0 0 288.53 209.97"><g id="Layer_2" data-name="Layer 2"><path d="M141.54,182.27c.34.7-1.77,2.35-2.58,2.92-2.85,2-6.65,2.47-7,1.64-.19-.39.42-1,.94-1.56C135.88,182.15,141.06,181.28,141.54,182.27Z" style="fill:#26010c"/><path d="M140.15,179.4c.43.45.17,1,1,2.87.51,1.14.76,1.3.89,1.74.66,2.39-6.34,7.5-8.26,6.08-1.23-.91.22-4.09-1.82-5.83-.61-.52-1-.46-1.12-.83C130.41,181.72,138.49,177.68,140.15,179.4Z" style="fill:#f9f0e8"/><path d="M68.66,16.89c2.69.89,2.79,3.08,5.39,3.37a4.86,4.86,0,0,0,3.1-.69c.4-.26,1-.85,2.48-4.12,1-2.09,1.46-3.14,1.27-3.65-1.3-3.38-23,1.12-22.81,3.43.06.93,3.63,1.51,4.14,1.6C65.68,17.39,66.43,16.14,68.66,16.89Z" style="fill:#2d1704"/><path d="M76.21,48.36c-4.07-2.56-4.14-10.65-3.92-27.47a17.63,17.63,0,0,1,.85-5.12c.75-2.3,1.56-4.79,3.28-5.42,3.17-1.15,8,4.43,10.42,8.12,1.15,1.77,1.94,3.88,3.47,8,2.65,7.12,4,10.68,3.57,12.58C92.48,45.75,81.09,51.44,76.21,48.36Z" style="fill:#f9ddca"/><path d="M88.91,45.79c2.49-1.82,4.44-4.21,5-6.73.4-1.9-.92-5.46-3.57-12.58-1.53-4.13-2.32-6.24-3.47-8a29.08,29.08,0,0,0-5.79-6.61C86,22.25,87.48,34.28,88.91,45.79Z" style="fill:#f2d0b6"/><path d="M71.77,24c1,.68,2.69-1.93,6.09-3.11C83.21,19.07,88.28,22.38,89,21c.31-.58-.6-1.1-1.8-3.65-1.52-3.22-.86-4.05-2.07-5.26-2-2-6-1.91-6.09-1.56h0a17,17,0,0,0-2.08-.1c-1.56,0-6.29.13-7.27,2.26C69,14.25,71,15.21,71.52,19.07,71.9,22,71,23.51,71.77,24Z" style="fill:#2d1704"/><path d="M84.12,20.59C86.69,21,88.59,21.8,89,21c.31-.58-.6-1.1-1.8-3.65-1.52-3.22-.86-4.05-2.07-5.26-2-2-5.89-1.91-6.08-1.57A32.88,32.88,0,0,1,84.12,20.59Z" style="fill:#211004"/><path d="M78.1,12.77c1.35.57,5.44,2.31,7.37.67,1.75-1.48,1.08-5.2,0-7.3A4.7,4.7,0,0,0,84,4.39c-.82-.61-2.06-1-6-.52-3.22.42-2.7.77-4.33.79-3.88,0-6-1.85-10.48-.25s-9.08,5.22-8.77,8.15c.19,1.73,1.85,2.81,2.77,3.45,1.72,1.17,4.65,2.16,6.13.94.66-.54.36-1,1-2.07,1.33-2.17,4-2.82,5.82-3.27a9.93,9.93,0,0,1,4.35-.31C76.08,11.58,76.58,12.12,78.1,12.77Z"/><path d="M75.46,2.52C74.89,4,76.36,6,76.7,6.46c2.63,3.51,8.09,3.89,8.83,2.25.19-.42-.06-.69-1.87-4.9C82.54,1.23,82.47,1,82,.61c-1.79-1.41-4.47,0-5.67.86A2.22,2.22,0,0,0,75.46,2.52Z"/><path d="M67.86,11c-1,1.55.76,4.06-.51,5.3-.4.39-.83.38-.82.62,0,.55,2.16,1.38,3.46.5l.07-.05a4.5,4.5,0,0,0,1.5-2.57c.66-2.6,1-3.9.28-4.53C70.93,9.4,68.65,9.76,67.86,11Z"/><path d="M15.65,123.78c1.17-2.59,3.35-2.46,3.9-5a4.88,4.88,0,0,0-.36-3.15c-.22-.43-.76-1-3.85-2.89-2-1.18-3-1.77-3.5-1.63-3.5,1-1.22,23,1.09,23,.93,0,1.88-3.46,2-4C15.85,126.8,14.69,125.93,15.65,123.78Z" style="fill:#2d1704"/><path d="M9.94,115.4c.45,1.78,2.84,2.83,5.06,3.81a17.6,17.6,0,0,0,5,1.37c16.72,1.93,24.77,2.67,27.73-1.12,2.2-2.8,1.32-8.4-1.2-12.77a139.41,139.41,0,0,0-36.67,8.07A2.74,2.74,0,0,0,9.94,115.4Z" style="fill:#f9ddca"/><path d="M46.53,106.69c-1.57-2.71-3.77-5-6.26-5.75-1.85-.59-5.53.37-12.88,2.28-4.27,1.1-6.44,1.68-8.32,2.64-3.66,1.85-9.19,5.73-9.21,8.9A139.41,139.41,0,0,1,46.53,106.69Z" style="fill:#f2d0b6"/><path d="M23.07,121.41c.78-1-1.66-2.87-2.48-6.37-1.29-5.51,2.52-10.22,1.22-11.09-.55-.36-1.15.49-3.82,1.43-3.35,1.18-4.11.44-5.44,1.52-2.2,1.8-2.51,5.75-2.17,5.9h0a14.91,14.91,0,0,0-.31,2.06c-.13,1.56-.51,6.27,1.52,7.47,1.47.86,2.63-1.07,6.53-1.17C21.07,121.08,22.48,122.14,23.07,121.41Z" style="fill:#2d1704"/><path d="M20.42,111.14c.46-3.71,2.37-6.54,1.39-7.19-.55-.36-1.15.49-3.82,1.43-3.35,1.18-4.11.44-5.44,1.52-2.2,1.8-2.51,5.75-2.17,5.9a14.91,14.91,0,0,0-.31,2.06c0,.23,0,.54-.06.9A24.31,24.31,0,0,1,20.42,111.14Z" style="fill:#211004"/><path d="M11.59,122.33c1.47.86,2.63-1.07,6.53-1.17,2.95-.08,4.36,1,4.95.25.78-1-1.66-2.87-2.48-6.37a11,11,0,0,1-.17-3.9A24.31,24.31,0,0,0,10,115.76C9.88,117.76,9.86,121.31,11.59,122.33Z" style="fill:#2d1704"/><path d="M12.51,114c.71-1.28,2.85-5.18,1.42-7.26-1.3-1.89-5.06-1.6-7.27-.69a4.64,4.64,0,0,0-1.88,1.2c-.69.76-1.23,2-1.13,5.94.09,3.24.49,2.77.34,4.39-.35,3.86-2.44,5.74-1.3,10.39S7,137.51,9.91,137.5c1.73,0,3-1.55,3.71-2.41,1.34-1.59,2.61-4.4,1.56-6-.48-.72-.94-.46-2-1.24-2-1.55-2.4-4.27-2.66-6.12a9.88,9.88,0,0,1,.13-4.36C11.13,115.87,11.72,115.42,12.51,114Z"/><path d="M2.05,115.57c1.46.71,3.56-.55,4.05-.84,3.76-2.26,4.68-7.66,3.13-8.56-.4-.23-.7,0-5.06,1.37-2.68.85-3,.88-3.36,1.29-1.58,1.64-.5,4.45.28,5.73A2.48,2.48,0,0,0,2.05,115.57Z"/><path d="M9.67,124c1.45,1.17,4.12-.34,5.22,1,.35.44.3.86.54.88.54,0,1.6-2,.85-3.39l-.05-.08a4.45,4.45,0,0,0-2.4-1.75c-2.52-.91-3.77-1.37-4.48-.74C8.44,120.77,8.56,123.07,9.67,124Z"/><path d="M74.57,20.37c3.44.24,4.56,1.3,16.81,5.55,3.22,1.12,5.23,1.77,6.53,2.17,1.92.61,2.24.73,2.67.88s6.21,2.15,8.86,4.69c3,2.9,1.1,5.72,3.11,16.07,1,5.29,1.65,8.46,3.92,12.06,2,3.26,2.84,3.14,7.66,8.53a52.15,52.15,0,0,1,6.65,9.57c2,3.56,3.54,7,2.44,10.42-1.49,4.59-6.74,4.82-11.93,8.3-13.76,9.21-9.24,30.08-18.73,32.41-1.12.28-4.84-.77-12.28-2.86-6.39-1.8-11-3.43-11.42-3.51-7.46-1.67-25.93-2.11-50,1.6-4-3.77-5.29-7.22-5.72-9.57C21.32,107,31,102.81,33.5,86.71c.39-2.52.93-5.61,1.67-11.87,1.69-14.5.59-15.44,1.66-20.65,3.46-16.94,19.1-26.64,21.2-27.9C63.25,23.14,68.13,19.92,74.57,20.37Z" style="fill:#0c0c0c"/><path d="M74.57,20.37c3.44.24,4.56,1.3,16.81,5.55,3.22,1.12,5.23,1.77,6.53,2.17,1.92.61,2.24.73,2.67.88s6.21,2.15,8.86,4.69c3,2.9,1.1,5.72,3.11,16.07,1,5.29,1.65,8.46,3.92,12.06,2,3.26,2.84,3.14,7.66,8.53a52.15,52.15,0,0,1,6.65,9.57c2,3.56,3.54,7,2.44,10.42-1.49,4.59-6.74,4.82-11.93,8.3-13.76,9.21-9.24,30.08-18.73,32.41-1.12.28-4.84-.77-12.28-2.86-6.39-1.8-11-3.43-11.42-3.51-7.46-1.67-25.93-2.11-50,1.6-4-3.77-5.29-7.22-5.72-9.57C21.32,107,31,102.81,33.5,86.71c.39-2.52.93-5.61,1.67-11.87,1.69-14.5.59-15.44,1.66-20.65,3.46-16.94,19.1-26.64,21.2-27.9C63.25,23.14,68.13,19.92,74.57,20.37Z" style="fill:#0c0c0c"/><path d="M124.35,89.61c1.18.91,2.54,3.38,3.63,6,2.15-1,3.89-2.1,4.63-4.37,1.12-3.41-.43-6.88-2.41-10.44a52,52,0,0,0-6.64-9.59c-4.81-5.4-5.61-5.27-7.66-8.54-2.26-3.6-2.87-6.78-3.88-12.08-2-10.38-.06-13.22-3.08-16.12-2.66-2.54-8.53-4.57-8.87-4.68s-.75-.27-2.67-.87l-.68-.22C85.32,49.91,108.81,75.3,124.35,89.61Z" style="fill:#020202"/><path d="M147.84,131.13c.56.49,2,1.76,2,3.45a4.38,4.38,0,0,1-1.14,2.63c-.54.74-1.28,2.92-2.76,7.26C141,158.87,141.45,170,141.45,170c.22,5.87,1.42,11.1-.95,12.41-1.33.73-2.85-.25-5,.89-2.33,1.25-2.32,3.35-3.23,3.48-2.9.43-12.89-19.09-8.33-39.65,1.15-5.14,3.28-14.74,10.58-17.66C139.13,127.59,145.06,128.69,147.84,131.13Z" style="fill:#540419"/><path d="M127.79,181.14c1.75,3.63,3.52,5.74,4.49,5.59s.9-2.23,3.23-3.48c2.14-1.14,3.66-.16,5-.89,2.37-1.31,1.17-6.54.95-12.41,0,0-.43-11.08,4.48-25.48,1.48-4.34,2.22-6.52,2.76-7.26a4.38,4.38,0,0,0,1.14-2.63c0-1.69-1.43-3-2-3.45a11.3,11.3,0,0,0-5.21-2.32C132.5,144.92,125.72,162.39,127.79,181.14Z" style="fill:#540419"/><path d="M138.87,126.47a27.86,27.86,0,0,0-4.34,2.95A32.15,32.15,0,0,0,124,147.08a55,55,0,0,0,3.84,34.06,73,73,0,0,1,2.76-38.6A70.11,70.11,0,0,1,138.87,126.47Z" style="fill:#440619"/><path d="M151.16,136.32c.23.68.84,2.49,1.93,2.62s1.85-1.13,2.27-1.74c7.77-11.31,14.66-21.35,12-23.61-2.11-1.81-9.47,2.15-13.38,7.52A17.79,17.79,0,0,0,151.16,136.32Z" style="fill:#26010c"/><path d="M170.19,122.08c.05.52.2.56.19,1,0,1.61-1.89,2.83-3.27,8.11-.84,3.23-.82,5.24-2.68,7.5-1.05,1.28-1.63,2-2.63,2.2-3.57.78-5.59-6.16-12.14-7.45-2.44-.48-3.26.24-4.22-.65-1.51-1.39.36-7.83,4.19-13.87,2.54-4,5.27-8.33,8.2-8,2.42.3,2.18,3.44,6.22,5.49,3,1.54,6.52,1.5,6.68,2.76C170.82,119.88,170.06,120.5,170.19,122.08Z" style="fill:#f9ddca"/><path d="M154.89,136.08c2.82,2.39,4.52,5.31,6.91,4.79,1-.22,1.58-.92,2.63-2.2,1.86-2.26,1.84-4.27,2.68-7.5,1.38-5.28,3.24-6.5,3.27-8.11,0-.42-.14-.46-.19-1-.13-1.58.63-2.2.54-2.89-.14-1.1-2.78-1.21-5.46-2.23C159.55,122.12,153.12,129.23,154.89,136.08Z" style="fill:#f2d0b6"/><path d="M101.64,130c.15.23,3,4.23,7.66,4.7C122.81,136.08,142,107.43,135,88.27c-1-2.73-2.53-6.94-5.86-7.77C117.75,77.69,91.92,115.67,101.64,130Z"/><path d="M162.11,112.74c-2.24,4.46-7.45,2.83-11.41,7.5a15.09,15.09,0,0,0-3.28,8.5c-.1,4.24,2,5.76,1.27,8.47-.91,3.31-5.15,4.81-8.42,5.91-13.36,4.52-25.38-.78-27.94-2-6.67-3.13-8.33-6.21-8.72-7-1.5-3-1.29-6-.56-10.51,3.3-20.3,18.21-38.65,18.21-38.65,2.84-3.5,6.11-7,10.48-7.13a11.32,11.32,0,0,1,6.94,2.65c12.61,9.29,17.28,7.42,21.51,14.86a22.74,22.74,0,0,1,3,11.9A12.19,12.19,0,0,1,162.11,112.74Z" style="fill:#540419"/><path d="M120.64,85.77c.39-.52.62-.79.62-.79,2.84-3.51,6.11-7,10.48-7.13a8.75,8.75,0,0,1,4,.86,13.29,13.29,0,0,1,3,1.79c2.18,1.78,9.06,8.91,18,19,2.14,2.76,3,4.41,2.53,4.94-.14.17-.41.22-.8.17-8.38-4.61-12.94-7.85-15.62-10.07-.46-.38-1.17-.91-2.24-1.64-1.66-1.15-4.15-2.82-7.72-5.21a13.22,13.22,0,0,0-12.21-1.88Z" style="fill:#440619"/><path d="M151.43,135.67a3.42,3.42,0,0,0,.7,2.49,10.62,10.62,0,0,0,1,.78c0,.06-1-.31-4.86-2a5.2,5.2,0,0,1-1.32-1.09c-1.68-1.93-1.42-4.64-1.26-6.11a25.54,25.54,0,0,1,11-17.7,25.85,25.85,0,0,1,5.76-2.9c.51.56,1.06,1.13,1.65,1.7a48.28,48.28,0,0,0,3.71,3.29,22.82,22.82,0,0,0-9.73,5.4A24.44,24.44,0,0,0,151.43,135.67Z" style="fill:#440619"/><path d="M131.55,184a3.93,3.93,0,0,0,.38,2.84,22,22,0,0,1,6.12-3.56,20.76,20.76,0,0,1,3.49-1,2.49,2.49,0,0,0-.43-1.51,2.65,2.65,0,0,0-1.47-.95c-2.59-.79-5.52,1.4-6.07,1.81A4.46,4.46,0,0,0,131.55,184Z" style="fill:#440619"/><path d="M69.83,20.68,70,26.59" style="fill:#00000e"/><path d="M134.87,200.05c-.89-1.62-4.54-8.19-2.14-14a8.07,8.07,0,0,1,2.28-3.23c3-2.46,7-1.56,7.64-1.42,1.76.43,1.08.79,4.16,2.05,2.13.86,6.09,2.16,6.44,3.53h0c.05.2.39,1.59-.3,2.21-1.25,1.12-4.63-1.5-5.86-.32a1.78,1.78,0,0,0-.38,1.42c.22,4.73,9.5,11.74,8.41,15.69a3.19,3.19,0,0,1-1.34,1.72,3.38,3.38,0,0,1-.58.37,10.63,10.63,0,0,1-3.48,1.13c-.32.06-.66.1-1,.13a13.85,13.85,0,0,1-4-.19C139.3,208.06,136.66,203.27,134.87,200.05Z" style="fill:#f9ddca"/><path d="M139.38,181.18a7.82,7.82,0,0,0-4.37,1.66,8.18,8.18,0,0,0-2.28,3.23c-1.84,4.44-.13,9.34,1.18,12.11C132.37,192.06,134.41,184.86,139.38,181.18Z" style="fill:#f2d0b6"/><path d="M118.07,41.13a3.12,3.12,0,0,1,2.59-2.48c2.13-.28,3.4,2.35,4.42,2,1.83-.63-2.16-9.57,1-13a1.75,1.75,0,0,1,.24-.23.93.93,0,0,1,.1-.1,4.48,4.48,0,0,1,.81-.52,5.86,5.86,0,0,1,1.24-.44h0l.13,0c.1,0,.2-.05.3-.06a8.77,8.77,0,0,1,1.56-.1,8.19,8.19,0,0,1,.85,0,16.26,16.26,0,0,1,6.89,2.39c5.25,3.35,7.62,10.15,6.66,15.86,0,.16-.06.34-.09.5-.07.36-.16.72-.26,1.07s-.23.73-.36,1.09c-.09.2-.23.56-.45,1a.88.88,0,0,1-.1.22,10.33,10.33,0,0,1-.51,1l-.21.34-.14.22c-.1.15-.21.31-.33.46l-.33.44-.07.08a8.05,8.05,0,0,1-.63.68,2.5,2.5,0,0,1-.24.22,6.17,6.17,0,0,1-1.09.81,4.82,4.82,0,0,1-.5.27l-.51.21h0l-.56.16c-2,.46-3.06-.76-9.69-4.23C118.93,43.81,118,42.27,118.07,41.13Z" style="fill:#f9ddca"/><path d="M136.82,31a20,20,0,0,0-8.17-4.65c.1,0,.2-.05.3-.06a8.77,8.77,0,0,1,1.56-.1,8.19,8.19,0,0,1,.85,0,16.26,16.26,0,0,1,6.89,2.39,16.74,16.74,0,0,1,6.66,15.86c0,.16-.06.34-.09.5-.07.36-.16.72-.26,1.07s-.23.73-.36,1.09c-.09.2-.23.56-.45,1a.88.88,0,0,1-.1.22,10.33,10.33,0,0,1-.51,1c.13-1.29.89-10-4.89-16.85,0,0,0,0,0,0s-.22-.25-.34-.37l-.12-.14,0-.05C137.45,31.58,137.15,31.27,136.82,31Z" style="fill:#f2d0b6"/><path d="M118.07,41.13a3.12,3.12,0,0,1,2.59-2.48c2.13-.28,3.4,2.35,4.42,2,1.83-.63-2.16-9.57,1-13a1.75,1.75,0,0,1,.24-.23.93.93,0,0,1,.1-.1,4.48,4.48,0,0,1,.81-.52c8.64,2.77,15.35,13.8,15.87,22.54l-.21.34-.14.22c-.1.15-.21.31-.33.46l-.33.44-.07.08a8.05,8.05,0,0,1-.63.68,2.5,2.5,0,0,1-.24.22,6.17,6.17,0,0,1-1.09.81,4.82,4.82,0,0,1-.5.27l-.51.21h0l-.56.16c-2,.46-3.06-.76-9.69-4.23C118.93,43.81,118,42.27,118.07,41.13Z" style="fill:#f9ddca"/><path d="M123.87,40.11c-.81-.66-1.82-1.66-3.17-1.48a3.33,3.33,0,0,0-2.37,1.74A5.66,5.66,0,0,1,123.87,40.11Z" style="fill:#f2d0b6"/><path d="M146,51.12a6.3,6.3,0,0,1-2.2,0,22.19,22.19,0,0,0-2.3-.69,4.21,4.21,0,0,0-1,.14c-2.21.59-4.74,5.72-6.38,5.67-.81,0-1.88-1.32-3-6.84.69-1.53,3-6.06,7.76-7.56.27-.09,5.23-1.6,6.94.56.2.27.46.76.59,3A23.11,23.11,0,0,1,146,51.12Z" style="fill:#440619"/><path d="M147.74,105c-3.43-2.26-5.12-5.47-6.64-10.08-.07-.21-.14-.43-.2-.66-.45-1.39-.89-2.92-1.36-4.58a53.48,53.48,0,0,1-1.92-10c-.67-7.48.83-11-2.82-17.93-1.73-3.3-4-6.15-3.1-9.69,1-4.17,5.7-6.36,6.4-6.68,1.35-.64,4.94-2.35,8.25-.93,1.21.52,2.56,1.52,7.22,11,1.41,2.89,2.22,4.53,2.89,6.11,2.24,5.39,11,29.95,7.39,41a7.91,7.91,0,0,1-2.93,4.25,6.72,6.72,0,0,1-2.75,1,7.34,7.34,0,0,1-.82.08C153.93,108.14,150.05,106.53,147.74,105Z" style="fill:#540419"/><path d="M213.64,178.22a147.74,147.74,0,0,0,7.1-22.47c.24-.95.49-2.12.79-3.62.66-3.33,1.53-8.21,2.85-15.67,3.81-21.48,4.64-30.22,8.25-47.77,1.27-6.15,2.4-11.06,3.07-13.93,0,3.84-.12,9.53-.26,16.44-.56,28.84-1.25,36.43-2.11,42.89a131,131,0,0,1-3.42,18.65s-.37,1.35-1.12,3.66a139.42,139.42,0,0,1-9.64,22.39A15.72,15.72,0,0,1,213.64,178.22Z" style="fill:#2effb9"/><path d="M236.93,90.24c3.76,2.25,8.83-.66,13.87-3.56a41.56,41.56,0,0,0,9.49-7.4c23.27-25.13,28.91-30.67,28.14-31.44-1-1-12.13,7.9-16.3,11.24-7.1,5.71-8.16,7.44-13,9.82-6.39,3.16-9.59,4.74-14,4.54-2.94-.13-6.79-1-9.4,1.32a6.24,6.24,0,0,0-1.34,1.79C232.18,80.61,232.91,87.84,236.93,90.24Z" style="fill:#1a6ca3"/><path d="M235.34,76.73a5.07,5.07,0,0,0,.36-2c-.17-3.44-4.59-5.43-7.76-7.52-2.65-1.75-5.16-4.84-10.18-11-8.42-10.37-9.63-17.66-11.06-17.28-2.16.56-.42,17.3,6.2,32.65,1.83,4.25,6.43,14.65,11.6,14.33.77,0,1.62-.5,3.32-1.42C229.81,83.42,234,81.15,235.34,76.73Z" style="fill:#1a6ca3"/><path d="M250.8,86.68a85.31,85.31,0,0,0,16.25-12.92c8.34-8.61,22.77-24.53,21.38-25.92-.26-.27-1.2-.07-4.15,2-1.89,2.08-4.64,5-8.06,8.46C265.43,69.11,260,74.53,255,77c-9.34,4.6-18,4.15-19.43,9.58a6,6,0,0,0-.13,2.29,6.14,6.14,0,0,0,1.53,1.35C241,92.66,250.8,86.68,250.8,86.68Z" style="fill:#1c658e"/><path d="M224.5,85.92c.77,0,1.62-.5,3.32-1.42a20.3,20.3,0,0,0,4.87-3.44c-8.34-5.49-13.86-14.92-18.89-23.28a65.41,65.41,0,0,1-7.73-17.9c-1,3.8,1,18.28,6.83,31.71C214.73,75.84,219.33,86.24,224.5,85.92Z" style="fill:#1c658e"/><path d="M244.11,106.32c.38-.09.52-1.28.62-2.09a4.46,4.46,0,0,0-.23-2.52c-.29-.62-.48-.57-.81-1.16-.71-1.27,0-2-.46-3.13-.54-1.39-1.89-1-2.6-2.5-.45-1,0-1.35-.53-2.5s-1.4-2.1-1.72-2C237.28,91,242.65,106.64,244.11,106.32Z" style="fill:#d9f3f4;opacity:0.78"/><path d="M197.2,92.5c-.91-1.13,0-4.33,1.73-5.21.85-.42,1.41-.12,2.56-.73,1.51-.81,1.31-1.75,2.56-2.23s1.82.36,3.39,0a6.78,6.78,0,0,0,.9-.33c1.1-.46,1.53-.78,1.95-1,1.5-.68,2.42.7,4.48.32,1.53-.28,1.28-1.08,2.78-1.3s2.12.48,4.18.41a9.21,9.21,0,0,0,1.87-.27c1.25-.22,2.15-.28,2.26,0C226.44,83.61,200.17,96.19,197.2,92.5Z" style="fill:#d9f3f4;opacity:0.78"/><path d="M214.21,203c.2,1.07-1.7,2.5-3.36,3a4,4,0,0,1-3.16-.21c-1.45-.86-2.26-2.92-1.64-3.91C207.21,200,213.86,201.14,214.21,203Z" style="fill:#f9a5a5"/><path d="M199.75,94.13c1.25-1.72-2.62-4.53-3.55-9.82-1.06-6,2.53-10.74,1.66-11.19s-3.54,3.31-5.23,6.38a23.34,23.34,0,0,0-2.85,9.58c-.21,3,.36,3.93.77,4.4,1.14,1.29,3,1.36,4.8,1.43C197.45,95,199.09,95.05,199.75,94.13Z" style="fill:#1c658e"/><path d="M244.88,111.1c3.2,1.8,8.62-2.32,11.1-4.76,5.77-5.7,7-13.56,6.29-13.88s-2.72,8.76-10.25,11.79c-4.23,1.71-8.27.71-9.06,2.81C242.47,108.38,243.48,110.32,244.88,111.1Z" style="fill:#1c658e"/><line x1="233.57" y1="201.75" x2="226.36" y2="197.05" style="fill:none;stroke:#000;stroke-linecap:round;stroke-miterlimit:10;stroke-width:3px"/><line x1="224.56" y1="205.76" x2="220.15" y2="198.38" style="fill:none;stroke:#000;stroke-linecap:round;stroke-miterlimit:10;stroke-width:3px"/><line x1="233.88" y1="195.42" x2="228.81" y2="194.79" style="fill:none;stroke:#000;stroke-linecap:round;stroke-miterlimit:10;stroke-width:3px"/><path d="M211.35,204.12a3.8,3.8,0,0,1-2.38-2.21,2.11,2.11,0,0,1,0-.9c.24-1.36,1.8-2.77,4.1-4.86,8.14-7.41,13.81-10.11,16.87-8a5.3,5.3,0,0,1,2,3.72,12.58,12.58,0,0,1,0,3.07c-.42,3.29-2.65,6-6.62,8.18C220.59,205.65,214.59,205.53,211.35,204.12Z" style="fill:#fff"/><path d="M229.62,199.79c1.14-4.43.65-9.14-3.5-12.18a4.75,4.75,0,0,1,3.8.51,5.3,5.3,0,0,1,2,3.72,12.58,12.58,0,0,1,0,3.07A8.87,8.87,0,0,1,229.62,199.79Z" style="fill:#f4f4f4"/><path d="M219.54,194.09c-4.14-.66-8.64,2.42-8.21,4.84s5.9,4.69,9.69,3.38c1.76-.61,4.12-2.32,3.73-4.47S221.46,194.4,219.54,194.09Z" style="fill:#020202"/><path d="M194.15,209.87h0l-.32-.08-.11,0-.1,0h0a5.53,5.53,0,0,0,.25-.87c.56-3,1.18-5.92,1.9-8.85.27-1.14.57-2.28.88-3.41,1.11-4.05,3-7.57,4.43-11.49.89-2.48.35-5.48-2.32-6.68-5.94-2.63-10.34,2.05-13.26,6.75a45.05,45.05,0,0,0-4,8.31,33.63,33.63,0,0,0-1.06,4c-.25,1.06-.48,2.15-.76,3.2-.2-.51-.39-1-.58-1.56a146.14,146.14,0,0,0-5.88-14.89c-3.3-6.66-5.92-13-7.05-20.42-1.22-7.87-2.94-16.1-2.22-24.09.74-8.31,4.2-16.19,8.18-23.42,7.23-13.12,16.35-24.48,32.15-26.33,12.36-1.47,23.89-2.6,31.09-13.74h0c.19-.28.36-.56.53-.84a2.26,2.26,0,0,0,.14-.26c.55.86,0,3,.37,6.93.26,3,.81,5.09,3.73,12.89,2.72,7.26,4.08,10.89,5.52,14.23,4.2,9.72,10.25,44.41-8.08,71.72C223.82,201.34,200.77,211.09,194.15,209.87Z" style="fill:#1c658e"/><path d="M193.82,209.79l-.11,0-.1,0a2,2,0,0,1-.89-.51c-1.24-1.28-2.06-6.65-.94-11.65,0-.15.07-.35.15-.69,0-.14.07-.28.1-.42a60.3,60.3,0,0,1,4.24-11.55,18.11,18.11,0,0,0-8.35,6.14c-4.17,5.84-2.33,12-4,14.56a2.51,2.51,0,0,1-.89.82,3.26,3.26,0,0,1-2.22.22c-3.82-.73-9.69-5.79-14-11.34a58.9,58.9,0,0,1-11.19-25.85c-.19-1-.36-2-.51-3.08a84.91,84.91,0,0,1,3.59-37.63c1.74-4.65,7.71-20,23-31.35,3.89-2.88,9.54-7.06,18-9.5,10.88-3.13,18.15-1,27.61-6.52a34.61,34.61,0,0,0,8.17-6.65c0,.46-.11.94-.17,1.46h0c-.46,4.1-1.08,10-1.7,17.08-3.71,42.11-.43,48.11-5.89,65.06S212.91,188,209.07,193a128.73,128.73,0,0,1-12.17,13.82C195.83,207.9,194.79,208.89,193.82,209.79Z" style="fill:#e8fafc"/><path d="M185.37,191a15.57,15.57,0,0,0-2.8,7.45,19.55,19.55,0,0,0,.12,6.41c0,.16.34,1.29.79,1.3.14,0,.31-.12.61-.72a10.9,10.9,0,0,0,.93-5,14.55,14.55,0,0,1,1-5.68,16.33,16.33,0,0,1,5.21-6.69,21.37,21.37,0,0,1,5-3.11,16.59,16.59,0,0,0-4.38,1.11A15.13,15.13,0,0,0,185.37,191Z" style="fill:#c7e5e5"/><path d="M194.46,209.32a25.64,25.64,0,0,1-1.2-6.61,32.78,32.78,0,0,1,.75-7.63c.46-2.6,1.18-6.13,2.33-10.31l-.07.13a59.24,59.24,0,0,0-4.34,12c-.08.33-.12.55-.15.69-1.12,5-.3,10.37.94,11.65a2.3,2.3,0,0,0,1.1.57Z" style="fill:#d9f3f4"/><path d="M194.72,188.36a56.52,56.52,0,0,0-2.79,8.51c-.08.33-.12.55-.15.69a23,23,0,0,0-.27,8.32,39.48,39.48,0,0,1,.26-6.7A40,40,0,0,1,194.72,188.36Z" style="fill:#c7e0e0"/><path d="M183.06,206.42a32.88,32.88,0,0,1-5.82-6c-2.22-3-3.76-6.13-5.48-11.38a74.61,74.61,0,0,1-4.15-19c-.66-8.54-1.68-21.21,3.81-36.26,4.88-13.42,15.66-27.92,25.62-34.19,4.29-2.7,9-4.35,13.65-6.15,7.46-2.88,7.05-3,8.1-3.6,10.72-5.55,17.28-14.73,16.91-15.11s-2.88,3.38-8.33,6.61c-9.64,5.7-16.44,3.38-27.61,6.52-8.38,2.36-13.94,6.48-18,9.5-15.33,11.33-21.3,26.7-23,31.35-6.13,16.39-4.51,30.44-3.59,37.63a73.22,73.22,0,0,0,3.27,14.32c2.53,7.45,7.31,21.51,18.43,25A18,18,0,0,0,183.06,206.42Z" style="fill:#d9f3f4"/><path d="M214.07,174.65c.9-7.41,1.73-13.58,2.37-18.11,0,0,.52-3.71,1.46-9.61,2-12.54,5.93-35,10.81-52.95a122.24,122.24,0,0,1,5.17-15.09c.74-1.76,1.39-3.19,1.82-4.13-.74,6.48-1,11.81-1.15,15.48-.48,14.36.72,27.13-.83,40.73-.15,1.23-.34,2.73-.39,3.12a131.83,131.83,0,0,1-3.25,18l-.18.67s-.36,1.36-1.11,3.66A140.76,140.76,0,0,1,221,175.3l-.77.07a17.22,17.22,0,0,1-5.25-.46C214.75,174.85,214.44,174.77,214.07,174.65Z" style="fill:#f1f9bb"/><path d="M215,174.91a157.92,157.92,0,0,0,5.78-19.16c.24-.95.5-2.13.78-3.62.26-1.25.54-2.73.86-4.49.53-2.88,1.17-6.53,2-11.18,3.82-21.48,4.65-30.21,8.26-47.77,1.27-6.15,2.39-11.06,3.07-13.93-.74,6.48-1,11.81-1.15,15.48-.48,14.36.72,27.13-.83,40.73-.15,1.23-.34,2.73-.39,3.12a131.83,131.83,0,0,1-3.25,18l-.18.67s-.36,1.36-1.11,3.66A140.76,140.76,0,0,1,221,175.3l-.77.07A16.29,16.29,0,0,1,215,174.91Z" style="fill:#f2e991"/><path d="M245.66,109.13a4.43,4.43,0,0,1,3.12.49c3.09,2,1.6,8.66,1.13,14.11a53.34,53.34,0,0,0,3.82,24.5c5.47,12.56,15.25,13.08,14.72,20.59-.45,6.29-7.68,11.46-12.82,13.3a23.91,23.91,0,0,1-10.37,1.15,26.53,26.53,0,0,1-9.65-2.79,119.32,119.32,0,0,0,8.45-23.86A121.05,121.05,0,0,0,245.66,109.13Z" style="fill:#1a6ca3"/><path d="M245.26,183.27a23.91,23.91,0,0,0,10.37-1.15c5.14-1.84,12.37-7,12.82-13.3a7.61,7.61,0,0,0-.06-1.6c-6,11.27-19.83,14.88-31.57,10.65-.4.9-.81,1.77-1.21,2.61A26.53,26.53,0,0,0,245.26,183.27Z" style="fill:#1c658e"/><path d="M257,154a28.82,28.82,0,0,1-3.31-5.74,43.57,43.57,0,0,1-1.81-5.1c-1.12,2.59-3.47,3.79-6.07,4.33-.47,3-1,6-1.79,9.16-.8,3.36-1.72,6.54-2.7,9.53C248.32,164.54,254.69,160.69,257,154Z" style="fill:#207db0"/><path d="M251.92,143.13a55.68,55.68,0,0,1-1.83-9.19,14,14,0,0,1-3.06,2.64c-.22,3.48-.6,7.11-1.18,10.88C248.45,146.92,250.8,145.72,251.92,143.13Z" style="fill:#2283b4"/><path d="M249.88,124.34c0-.21,0-.41,0-.61.18-2.06.5-4.29.67-6.38a35.71,35.71,0,0,1-3.7,2c.16,2.09.28,4.27.34,6.56A13.87,13.87,0,0,0,249.88,124.34Z" style="fill:#2489b9"/><path d="M250.08,111.27a3.94,3.94,0,0,0-.77-1.19,7.38,7.38,0,0,1-3.24,1.79c.07.53.14,1,.21,1.6A9.45,9.45,0,0,0,250.08,111.27Z" style="fill:#2894c1"/><path d="M249.31,110.08a2.92,2.92,0,0,0-.53-.46,4.43,4.43,0,0,0-3.12-.49c.14.87.28,1.79.41,2.74A7.38,7.38,0,0,0,249.31,110.08Z" style="fill:#268ebd"/><path d="M250.52,112.81a6.93,6.93,0,0,0-.44-1.54,9.45,9.45,0,0,1-3.8,2.2l.21,1.75A10.36,10.36,0,0,0,250.52,112.81Z" style="fill:#2a9ac5"/><path d="M250.58,117.35a19.39,19.39,0,0,0-.06-4.54,10.36,10.36,0,0,1-4,2.41c.14,1.34.28,2.71.39,4.15A35.71,35.71,0,0,0,250.58,117.35Z" style="fill:#268ebd"/><path d="M250.09,133.94a50.65,50.65,0,0,1-.21-9.6,13.87,13.87,0,0,1-2.66,1.59c.08,3.35,0,6.91-.19,10.65A14,14,0,0,0,250.09,133.94Z" style="fill:#2489b9"/><path d="M265.55,162.4c-2.29-2.22-5.57-4.46-8.51-8.43-2.35,6.72-8.72,10.57-15.68,12.18-1.05,3.2-2.19,6.2-3.35,9C248.61,176,261.39,172.8,265.55,162.4Z" style="fill:#1e77ac"/><path d="M268.39,167.22a8.38,8.38,0,0,0-2.84-4.82C261.39,172.8,248.61,176,238,175.12c-.39.94-.79,1.87-1.19,2.75C248.56,182.1,262.39,178.49,268.39,167.22Z" style="fill:#1c72a7"/><path d="M197.33,123.12c3.21-.57,5.23,3.64,6.81,3.07,2.33-.85,2.75-10.35-1.27-18.66-2.64-5.46-7.34-10.69-9-9.89-.89.43-.26,2.21-.39,5.9-.35,9.3-4.92,12.6-2.94,18.45.21.64,1.05,3.14,2.64,3.38S195.33,123.48,197.33,123.12Z" style="fill:#d9f3f4"/><path d="M198.38,124c4.15,0,5.7,3.64,7.11,2.85,2.16-1.2.95-10.92-2.1-19.45-2.56-7.17-7.16-16.16-9.13-15.32s1.21,9-1.56,23.69c-.66,3.54-1.83,8.2-.2,9.36C193.73,126,195.26,124,198.38,124Z" style="fill:#1a6ca3"/><path d="M197.85,123.26a6.54,6.54,0,0,1,2.64,0,6.64,6.64,0,0,1,2.37,1,56.76,56.76,0,0,0-5.66-26.45,43.44,43.44,0,0,1,2.18,16.58A42.87,42.87,0,0,1,197.85,123.26Z" style="fill:#2283b4"/><path d="M201.94,107.64a35.73,35.73,0,0,1-.15,17.35c1.77,1,2.77,2.42,3.7,1.9,2.16-1.2.95-10.92-2.1-19.45-2.42-6.77-6.64-15.13-8.76-15.36C197.67,97,200.61,101.84,201.94,107.64Z" style="fill:#1c658e"/><path d="M213.38,173.73c-4.74-1.34-8.78-4.71-10.06-9.07-1.48-5.07,1.23-9.88,2.05-11.32.69-1.25,3.17-5.63,7.59-7.13a13.93,13.93,0,0,1,8.64.22,19.68,19.68,0,0,1,7.51,4.45,13,13,0,0,1,4.4,9.66c-.16,6.58-6.24,12.42-13,13.6-.47.08-1,.14-1.45.18A16.38,16.38,0,0,1,213.38,173.73Z" style="fill:#d9f3f4"/><path d="M203.71,129.43a37.13,37.13,0,0,0-23.86,4.25,36.7,36.7,0,0,0-13.68,13.74" style="fill:none;stroke:#c7e5e5;stroke-linecap:round;stroke-linejoin:round"/><path d="M204.39,157.33a9.65,9.65,0,0,1-5.54-3.05c-3.56-4.22-1.3-10.44-1-11.36.47-1.3,2.77-7.69,8.69-8.57s10,4.58,10.28,4.94a12,12,0,0,1,.6,13.33C214.22,157.59,208.11,158.15,204.39,157.33Z" style="fill:#f9a5a5"/><line x1="231.94" y1="149.06" x2="225.32" y2="153.98" style="fill:none;stroke:#000;stroke-linecap:round;stroke-miterlimit:10;stroke-width:3px"/><line x1="238.87" y1="156.3" x2="230.58" y2="158.57" style="fill:none;stroke:#000;stroke-linecap:round;stroke-miterlimit:10;stroke-width:3px"/><line x1="236.72" y1="164.58" x2="228.6" y2="161.74" style="fill:none;stroke:#000;stroke-linecap:round;stroke-miterlimit:10;stroke-width:3px"/><path d="M204.43,165.75a11.47,11.47,0,0,1-.22-5.39,18.82,18.82,0,0,1,2.21-5.81C209,150,212,148.19,214,147.5a11.66,11.66,0,0,1,3.86-.57,16,16,0,0,1,4.48.71,1.81,1.81,0,0,1,.31.09,19.39,19.39,0,0,1,7.39,4.34l.06.05a12.92,12.92,0,0,1,4.43,9.61c-.15,6.22-5.94,12.27-12.91,13.47l-.68.1-.77.07a16.29,16.29,0,0,1-5.25-.46l-.45-.12-.44-.14C209.31,173.17,205.65,169.79,204.43,165.75Z" style="fill:#fff"/><path d="M232.67,167.74c.05-.41,1.09-10.33-6.35-15.75-1.64-1.2-6.76-4.41-12.84-2.42-6.76,2.21-8.81,8.9-9,9.49.13-.59,2.26-9.28,9.53-11.56a14.61,14.61,0,0,1,8.65.23,19.58,19.58,0,0,1,7.45,4.38,12.94,12.94,0,0,1,4.43,9.62A12.25,12.25,0,0,1,232.67,167.74Z" style="fill:#f4f4f4"/><path d="M220.88,151.2a6.68,6.68,0,0,0-7.28,3.47,7.35,7.35,0,0,0,.66,7.62c3.18,4,11.29,2.81,12.76-1.31C228.19,157.71,225.35,152.11,220.88,151.2Z"/><path d="M194,209.84h0l-.29-.07a.47.47,0,0,0-.09,0l-.1,0h0a2.11,2.11,0,0,1-.82-.43c-1.14-1-2-5.3-1.09-9.23,0-.11.06-.28.12-.54,0-.11.06-.22.08-.33,1.14,0,2.71,1.48,3.44,2.88a2.43,2.43,0,0,1,.32,2c-.29.67-1.21,1.06-1,1.64.13.42.67.42,1.24,1a1.93,1.93,0,0,1,.63.89,1.5,1.5,0,0,1-.15,1.15C195.69,209.71,194.1,209.83,194,209.84Z" style="fill:#e87e7c"/><path d="M178.22,203.08a5.34,5.34,0,0,1,.88-4,8.46,8.46,0,0,1,1.34-1.64c1-1,2.11-1.53,2.56-1.32.77.36-.62,2.82.25,7.1a14.54,14.54,0,0,0,.7,2.38l-.21.27-.24.25a3,3,0,0,1-1.82.33A4.58,4.58,0,0,1,178.22,203.08Z" style="fill:#e87e7c"/><path d="M130.1,31.86a11.31,11.31,0,0,0-2.73-3.72,11.9,11.9,0,0,0-1-.74.93.93,0,0,1,.1-.1,12.31,12.31,0,0,1,2.69,1.75c3.31,2.93,3.61,7.73,3.4,7.8S132,35.39,130.1,31.86Z" style="fill:#ddb397"/><path d="M137.9,32.09a21.57,21.57,0,0,0-3.27-3.45,16.51,16.51,0,0,0-4.12-2.48,8.19,8.19,0,0,1,.85,0,12.69,12.69,0,0,1,4,2.47,11.49,11.49,0,0,1,2.85,3.8s0,0,0,0S138.08,32.3,137.9,32.09Z" style="fill:#ddb397"/><path d="M145.46,197.56a30.43,30.43,0,0,0,6,8.09c.81.78,1.64,1.49,2.36,2.08a3.38,3.38,0,0,1-.58.37c-.34-.22-.68-.45-1-.68C150.4,206.06,147.43,203.26,145.46,197.56Z" style="fill:#ddb397"/><path d="M143.74,205.68a14.21,14.21,0,0,1-2.6-4.56,19.74,19.74,0,0,0,3.7,4.8,19,19,0,0,0,4.88,3.31c-.32.06-.66.1-1,.13A14.39,14.39,0,0,1,143.74,205.68Z" style="fill:#ddb397"/></g></svg>