<svg xmlns="http://www.w3.org/2000/svg" xmlns:xlink="http://www.w3.org/1999/xlink" viewBox="0 0 386.32 114.29"><defs><clipPath id="clip-path"><rect y="254.65" width="386.32" height="114.29" style="fill:none"/></clipPath><clipPath id="clip-path-2"><path d="M-37.76,247.5l27.45,189.12S73,453.57,146,443.8c241.77-32.39,179.28-72.84,315.8-92.55,102-14.72,152.12,15.59,152.12,15.59L583.45,156.36Z" style="fill:none"/></clipPath><radialGradient id="radial-gradient" cx="365.03" cy="-891.88" r="79.32" gradientTransform="matrix(-0.23, -1.57, -4.91, 0.71, -4011.32, 1473.75)" gradientUnits="userSpaceOnUse"><stop offset="0" stop-color="#99ca3b"/><stop offset="0.34" stop-color="#97c93b"/><stop offset="0.54" stop-color="#8ec63a"/><stop offset="0.69" stop-color="#81c139"/><stop offset="0.83" stop-color="#6dba37"/><stop offset="0.95" stop-color="#54b134"/><stop offset="1" stop-color="#47ac33"/></radialGradient><clipPath id="clip-path-3"><rect y="130.11" width="386.32" height="114.29" style="fill:none"/></clipPath><linearGradient id="linear-gradient" x1="-14.63" y1="217.43" x2="418.47" y2="217.43" gradientUnits="userSpaceOnUse"><stop offset="0" stop-color="#1d4498"/><stop offset="0.5" stop-color="#037cb6"/><stop offset="1" stop-color="#858889"/></linearGradient><radialGradient id="radial-gradient-2" cx="940.41" cy="350.15" r="313.95" gradientTransform="translate(-950.76 -205.97) scale(1.32 1.39)" gradientUnits="userSpaceOnUse"><stop offset="0" stop-color="#29b373"/><stop offset="1" stop-color="#1d4498"/></radialGradient><clipPath id="clip-path-4"><rect width="386.32" height="114.29" style="fill:none"/></clipPath><linearGradient id="linear-gradient-2" x1="443.13" y1="-1570.35" x2="398.39" y2="-1546.02" gradientTransform="translate(689.47 1584.97) rotate(-31.87)" gradientUnits="userSpaceOnUse"><stop offset="0" stop-color="#a12a3b" stop-opacity="0.9"/><stop offset="0.08" stop-color="#af4852" stop-opacity="0.87"/><stop offset="0.27" stop-color="#ca8480" stop-opacity="0.81"/><stop offset="0.46" stop-color="#dfb3a4" stop-opacity="0.76"/><stop offset="0.64" stop-color="#efd4be" stop-opacity="0.73"/><stop offset="0.81" stop-color="#f8e8ce" stop-opacity="0.71"/><stop offset="0.97" stop-color="#fbefd3" stop-opacity="0.7"/></linearGradient><linearGradient id="linear-gradient-3" x1="176.03" y1="0.84" x2="335.89" y2="87.63" gradientUnits="userSpaceOnUse"><stop offset="0.04" stop-color="#253c52" stop-opacity="0.9"/><stop offset="0.51" stop-color="#354a5e" stop-opacity="0.65"/><stop offset="0.97" stop-color="#3e5265" stop-opacity="0.5"/></linearGradient><linearGradient id="linear-gradient-4" x1="371.83" y1="75.41" x2="309.16" y2="109.49" gradientTransform="matrix(1, 0, 0, 1, 0, 0)" xlink:href="#linear-gradient-2"/></defs><g style="isolation:isolate"><g id="Layer_6" data-name="Layer 6"><g style="clip-path:url(#clip-path)"><g style="clip-path:url(#clip-path-2)"><polygon points="-47.2 181.29 -8.56 445.63 612.59 356.21 573.94 89.68 -47.2 181.29" style="fill:url(#radial-gradient)"/></g></g></g><g id="Layer_4" data-name="Layer 4"><g style="clip-path:url(#clip-path-3)"><path d="M332.54,102.82s-.09,124.25,2.37,130.16c3,7.1,7.69,6.51,10.06,6.51,3,0,6.83-3.33,7.69-5.92,1.77-5.32,4.14-30.17,4.14-30.17s2.37,34.9,9.47,34.9a9.4,9.4,0,0,0,8.28-4.73s3,4.73,6.51,4.73a11.31,11.31,0,0,0,8.28-3.55l4.14,5.92h53.84" style="fill:none;stroke:#fff;stroke-linecap:round;stroke-linejoin:round;stroke-width:13.4097978293469px"/><path d="M249.47,240.67h26.28l3-26.62,4.73,26.62,4.1-11.24,5.66-.89,5.92-2.37,18.63,9.77,1.78-29.58s3.81,28.39,4.33,24.35c3.73-29,2.77-127.89,2.77-127.89" style="fill:none;stroke:#fff;stroke-linecap:round;stroke-linejoin:round;stroke-width:13.4097978293469px"/><path d="M-14.63,29.5V405.35s432.79-.14,433.1,0V29.5Z" style="fill:#8b90a1"/><path d="M-14.63,29.5V405.35s432.79-.14,433.1,0V29.5Z" style="mix-blend-mode:color;fill:url(#linear-gradient)"/><path d="M-9,32V407.68s433.09.13,433.09,0V32S-9,31.82-9,32Z" style="mix-blend-mode:color;fill:url(#radial-gradient-2)"/></g></g><g id="Layer_3" data-name="Layer 3"><g style="clip-path:url(#clip-path-4)"><rect width="386.32" height="114.29" style="fill:#213254"/><rect width="386.32" height="114.29" rx="5" style="fill:none"/><circle cx="225.03" cy="37.74" r="19.39" style="fill:url(#linear-gradient-2)"/><path d="M212.73-31.33c-16.49,5.72-27,20.57-26.4,35.83C187,20.06,199.12,32,210.84,36c18.08,6.18,29.54-8.37,51.49-12.45,38.62-7.18,90,21.7,93,51.86,3.15,32.51-53.06,60.41-77.32,69.58-37.55,14.2-71.66,11.17-90,8.11,16.9,6.5,139.66,52.13,191-2.07a71.37,71.37,0,0,0,10.18-13.77L387-30.38Z" style="fill:url(#linear-gradient-3)"/><circle cx="343.04" cy="91.06" r="27.16" style="fill:url(#linear-gradient-4)"/><circle cx="291.38" cy="113.77" r="7.72" style="fill:#fbefd3;opacity:0.6900000000000001"/><path d="M-469.09,94.51V92.62a.94.94,0,0,1,.94-.94l782.7-.09a.94.94,0,0,0,.94-.94V78.6a1,1,0,0,1,.95-.94H336a.94.94,0,0,0,.94-.94V57.08a1.88,1.88,0,0,1,1.89-1.89h0a1.88,1.88,0,0,1,1.88,1.89V80.49a.94.94,0,0,1-.94.94H320.21a.94.94,0,0,0-.94.94v12a1,1,0,0,1-.95,1l-786.47.08A.94.94,0,0,1-469.09,94.51Z" style="fill:#900"/><path d="M317.28,64.66a5,5,0,1,1,5-5A5,5,0,0,1,317.28,64.66Zm0-9.22a4.21,4.21,0,1,0,4.2,4.21A4.22,4.22,0,0,0,317.28,55.44Z" style="fill:#900"/><path d="M317.28,53.7a5,5,0,1,1,5-5A5,5,0,0,1,317.28,53.7Zm0-9.21a4.21,4.21,0,1,0,4.2,4.21A4.22,4.22,0,0,0,317.28,44.49Z" style="fill:#900"/><path d="M317.28,42.75a5,5,0,1,1,5-5A5,5,0,0,1,317.28,42.75Zm0-9.21a4.21,4.21,0,1,0,4.2,4.2A4.21,4.21,0,0,0,317.28,33.54Z" style="fill:#900"/><path d="M328,53.7a5,5,0,1,1,5-5A5,5,0,0,1,328,53.7Zm0-9.21a4.21,4.21,0,1,0,4.2,4.21A4.22,4.22,0,0,0,328,44.49Z" style="fill:#900"/><path d="M328,42.75a5,5,0,1,1,5-5A5,5,0,0,1,328,42.75Zm0-9.21a4.21,4.21,0,1,0,4.2,4.2A4.21,4.21,0,0,0,328,33.54Z" style="fill:#900"/><path d="M328,31.79a5,5,0,1,1,5-5A5,5,0,0,1,328,31.79Zm0-9.21a4.21,4.21,0,1,0,4.2,4.21A4.22,4.22,0,0,0,328,22.58Z" style="fill:#900"/><path d="M338.8,42.75a5,5,0,1,1,5-5A5,5,0,0,1,338.8,42.75Zm0-9.21a4.21,4.21,0,1,0,4.2,4.2A4.21,4.21,0,0,0,338.8,33.54Z" style="fill:#900"/><path d="M338.8,31.79a5,5,0,1,1,5-5A5,5,0,0,1,338.8,31.79Zm0-9.21a4.21,4.21,0,1,0,4.2,4.21A4.22,4.22,0,0,0,338.8,22.58Z" style="fill:#900"/><path d="M338.8,20.84a5,5,0,1,1,5-5A5,5,0,0,1,338.8,20.84Zm0-9.21a4.21,4.21,0,1,0,4.2,4.2A4.21,4.21,0,0,0,338.8,11.63Z" style="fill:#900"/><path d="M349.56,53.7a5,5,0,1,1,5-5A5,5,0,0,1,349.56,53.7Zm0-9.21a4.21,4.21,0,1,0,4.2,4.21A4.22,4.22,0,0,0,349.56,44.49Z" style="fill:#900"/><path d="M349.56,42.75a5,5,0,1,1,5-5A5,5,0,0,1,349.56,42.75Zm0-9.21a4.21,4.21,0,1,0,4.2,4.2A4.21,4.21,0,0,0,349.56,33.54Z" style="fill:#900"/><path d="M349.56,31.79a5,5,0,1,1,5-5A5,5,0,0,1,349.56,31.79Zm0-9.21a4.21,4.21,0,1,0,4.2,4.21A4.22,4.22,0,0,0,349.56,22.58Z" style="fill:#900"/><path d="M360.31,64.66a5,5,0,1,1,5-5A5,5,0,0,1,360.31,64.66Zm0-9.22a4.21,4.21,0,1,0,4.21,4.21A4.21,4.21,0,0,0,360.31,55.44Z" style="fill:#900"/><path d="M360.31,53.7a5,5,0,1,1,5-5A5,5,0,0,1,360.31,53.7Zm0-9.21a4.21,4.21,0,1,0,4.21,4.21A4.21,4.21,0,0,0,360.31,44.49Z" style="fill:#900"/><path d="M360.31,42.75a5,5,0,1,1,5-5A5,5,0,0,1,360.31,42.75Zm0-9.21a4.21,4.21,0,1,0,4.21,4.2A4.21,4.21,0,0,0,360.31,33.54Z" style="fill:#900"/></g><path d="M32.92,32.18a2.84,2.84,0,0,1-1.2,1.15,4.54,4.54,0,0,1-2.12.44H27.71V38H26V27.57h3.6a4.45,4.45,0,0,1,2,.42,2.9,2.9,0,0,1,1.25,1.11,3.24,3.24,0,0,1,0,3.08Zm-1.86-.25a1.61,1.61,0,0,0,.48-1.25c0-1.14-.65-1.71-1.94-1.71H27.71v3.4H29.6A2.07,2.07,0,0,0,31.06,31.93Z" style="fill:#fff"/><path d="M34.87,31.62a4,4,0,0,1,1.41-1.49,3.86,3.86,0,0,1,2-.53A3.67,3.67,0,0,1,40,30a3.55,3.55,0,0,1,1.16.95v-1.2h1.73V38H41.12V36.77a3.37,3.37,0,0,1-1.18,1,3.86,3.86,0,0,1-3.66-.15,4,4,0,0,1-1.41-1.53,4.79,4.79,0,0,1-.51-2.23A4.65,4.65,0,0,1,34.87,31.62Zm5.9.75a2.58,2.58,0,0,0-.92-1,2.52,2.52,0,0,0-1.23-.33,2.41,2.41,0,0,0-1.23.33,2.47,2.47,0,0,0-.93.94,3,3,0,0,0-.35,1.48,3.13,3.13,0,0,0,.35,1.5,2.52,2.52,0,0,0,.93,1,2.38,2.38,0,0,0,1.23.34,2.41,2.41,0,0,0,1.23-.33,2.46,2.46,0,0,0,.92-1,3.35,3.35,0,0,0,0-3Z" style="fill:#fff"/><path d="M47.09,31.13V35.7a.86.86,0,0,0,.22.67,1,1,0,0,0,.74.2H49.1V38H47.75A2.6,2.6,0,0,1,46,37.46a2.24,2.24,0,0,1-.61-1.76V31.13h-1v-1.4h1V27.68h1.72v2.05h2v1.4Z" style="fill:#fff"/><path d="M56.64,30a3,3,0,0,1,1.17,1.2,4.09,4.09,0,0,1,.43,1.92V38h-1.7V33.38a2.38,2.38,0,0,0-.55-1.7,2.23,2.23,0,0,0-3,0,2.34,2.34,0,0,0-.56,1.7V38H50.68V26.9h1.71v3.79a2.82,2.82,0,0,1,1.1-.81A3.84,3.84,0,0,1,55,29.6,3.49,3.49,0,0,1,56.64,30Z" style="fill:#fff"/><path d="M71.51,29.73,69,38H67.14l-1.66-6.11L63.81,38H62l-2.58-8.27h1.75l1.72,6.65,1.76-6.65h1.78l1.68,6.62,1.71-6.62Z" style="fill:#fff"/><path d="M72.73,31.62a4,4,0,0,1,1.41-1.49,3.84,3.84,0,0,1,2-.53,3.7,3.7,0,0,1,1.7.38,3.55,3.55,0,0,1,1.16.95v-1.2H80.7V38H79V36.77a3.4,3.4,0,0,1-1.19,1,3.65,3.65,0,0,1-1.71.39,3.61,3.61,0,0,1-1.94-.54,3.93,3.93,0,0,1-1.41-1.53,4.79,4.79,0,0,1-.51-2.23A4.65,4.65,0,0,1,72.73,31.62Zm5.9.75a2.6,2.6,0,0,0-.93-1,2.49,2.49,0,0,0-1.23-.33,2.44,2.44,0,0,0-1.23.33,2.52,2.52,0,0,0-.92.94A3,3,0,0,0,74,33.83a3.13,3.13,0,0,0,.35,1.5,2.52,2.52,0,0,0,.93,1,2.34,2.34,0,0,0,1.22.34,2.39,2.39,0,0,0,1.23-.33,2.49,2.49,0,0,0,.93-1,3.35,3.35,0,0,0,0-3Z" style="fill:#fff"/><path d="M90.39,29.73,85.33,41.88H83.56l1.67-4L82,29.73h1.91L86.21,36l2.41-6.3Z" style="fill:#fff"/><path d="M92.94,37.78a3,3,0,0,1-1.23-1,2.36,2.36,0,0,1-.48-1.36H93a1.23,1.23,0,0,0,.51.88,1.77,1.77,0,0,0,1.15.35,1.94,1.94,0,0,0,1.11-.27.85.85,0,0,0,.4-.72.74.74,0,0,0-.44-.69,8.86,8.86,0,0,0-1.4-.49,12.89,12.89,0,0,1-1.52-.5,2.6,2.6,0,0,1-1-.73A1.92,1.92,0,0,1,91.37,32a2,2,0,0,1,.39-1.2,2.55,2.55,0,0,1,1.12-.87,4.15,4.15,0,0,1,1.67-.31,3.46,3.46,0,0,1,2.27.71,2.54,2.54,0,0,1,.92,1.94H96a1.27,1.27,0,0,0-.46-.88A1.67,1.67,0,0,0,94.49,31a1.8,1.8,0,0,0-1,.25.8.8,0,0,0-.35.68.71.71,0,0,0,.23.55,1.83,1.83,0,0,0,.59.36c.23.08.57.19,1,.32a10.65,10.65,0,0,1,1.48.49,2.69,2.69,0,0,1,1,.72,2,2,0,0,1,.44,1.28A2.14,2.14,0,0,1,97.46,37a2.61,2.61,0,0,1-1.1.87,4.16,4.16,0,0,1-1.68.31A4,4,0,0,1,92.94,37.78Z" style="fill:#fff"/><path d="M105.59,31.13V35.7a.86.86,0,0,0,.22.67,1,1,0,0,0,.74.2h1V38h-1.35a2.6,2.6,0,0,1-1.77-.54,2.24,2.24,0,0,1-.62-1.76V31.13h-1v-1.4h1V27.68h1.73v2.05h2v1.4Z" style="fill:#fff"/><path d="M110.64,37.6a3.75,3.75,0,0,1-1.48-1.5,4.88,4.88,0,0,1,0-4.48,3.85,3.85,0,0,1,1.52-1.5,4.68,4.68,0,0,1,4.29,0,3.82,3.82,0,0,1,1.51,1.5,4.49,4.49,0,0,1,.56,2.24,4.3,4.3,0,0,1-.57,2.23,4,4,0,0,1-1.55,1.51,4.44,4.44,0,0,1-2.17.53A4.2,4.2,0,0,1,110.64,37.6ZM114,36.33a2.4,2.4,0,0,0,.93-.94,3,3,0,0,0,.36-1.53,3.08,3.08,0,0,0-.34-1.52,2.32,2.32,0,0,0-.92-.94,2.51,2.51,0,0,0-1.23-.32,2.47,2.47,0,0,0-1.22.32,2.25,2.25,0,0,0-.89.94,3.19,3.19,0,0,0-.33,1.52,2.91,2.91,0,0,0,.68,2.06,2.25,2.25,0,0,0,1.72.73A2.57,2.57,0,0,0,114,36.33Z" style="fill:#fff"/><path d="M124.19,37.74a3.15,3.15,0,0,1-1.32-1.05,2.63,2.63,0,0,1-.48-1.57h1.83a1.67,1.67,0,0,0,.53,1.11,1.9,1.9,0,0,0,1.33.43,2.07,2.07,0,0,0,1.38-.42,1.41,1.41,0,0,0,.49-1.11,1.21,1.21,0,0,0-.3-.85,2.08,2.08,0,0,0-.77-.51,11.27,11.27,0,0,0-1.27-.39,10.89,10.89,0,0,1-1.65-.55,2.66,2.66,0,0,1-1.09-.86,2.49,2.49,0,0,1-.45-1.56,2.79,2.79,0,0,1,.45-1.58,2.86,2.86,0,0,1,1.26-1,4.55,4.55,0,0,1,1.87-.36,3.91,3.91,0,0,1,2.49.76,2.78,2.78,0,0,1,1.07,2.07h-1.89a1.36,1.36,0,0,0-.54-1,2,2,0,0,0-1.31-.41,1.85,1.85,0,0,0-1.2.38,1.3,1.3,0,0,0-.46,1.08,1.13,1.13,0,0,0,.29.79,2.15,2.15,0,0,0,.74.48,11.53,11.53,0,0,0,1.23.39,12.64,12.64,0,0,1,1.69.57,2.79,2.79,0,0,1,1.11.88,2.49,2.49,0,0,1,.46,1.58,2.8,2.8,0,0,1-.43,1.5A3.12,3.12,0,0,1,128,37.68a4.19,4.19,0,0,1-1.93.42A4.75,4.75,0,0,1,124.19,37.74Z" style="fill:#fff"/><path d="M139.19,29.73V38h-1.71V37a2.8,2.8,0,0,1-1.06.81,3.43,3.43,0,0,1-1.39.29,3.66,3.66,0,0,1-1.74-.41,2.94,2.94,0,0,1-1.22-1.2,4,4,0,0,1-.44-1.92V29.73h1.69v4.61a2.39,2.39,0,0,0,.56,1.7,1.94,1.94,0,0,0,1.51.59,2,2,0,0,0,1.53-.59,2.39,2.39,0,0,0,.56-1.7V29.73Z" style="fill:#fff"/><path d="M141.39,31.62a3.63,3.63,0,0,1,1.43-1.5,4.6,4.6,0,0,1,4.58.19,3.53,3.53,0,0,1,1.33,2h-1.85a2,2,0,0,0-.72-1,2.18,2.18,0,0,0-1.24-.34,2.07,2.07,0,0,0-1.67.74,3.13,3.13,0,0,0-.63,2.08,3.11,3.11,0,0,0,.63,2.08,2,2,0,0,0,1.67.75,1.89,1.89,0,0,0,2-1.3h1.85a3.67,3.67,0,0,1-1.35,2,4,4,0,0,1-2.46.74,4,4,0,0,1-2.1-.53,3.63,3.63,0,0,1-1.43-1.5,5.08,5.08,0,0,1,0-4.48Z" style="fill:#fff"/><path d="M150.39,31.62a3.63,3.63,0,0,1,1.43-1.5,4.6,4.6,0,0,1,4.58.19,3.53,3.53,0,0,1,1.33,2h-1.85a2,2,0,0,0-.72-1,2.18,2.18,0,0,0-1.24-.34,2.07,2.07,0,0,0-1.67.74,3.13,3.13,0,0,0-.63,2.08,3.11,3.11,0,0,0,.63,2.08,2,2,0,0,0,1.67.75,1.89,1.89,0,0,0,2-1.3h1.85a3.67,3.67,0,0,1-1.35,2,4,4,0,0,1-2.46.74,4,4,0,0,1-2.1-.53,3.63,3.63,0,0,1-1.43-1.5,5.08,5.08,0,0,1,0-4.48Z" style="fill:#fff"/><path d="M167,34.5h-6.31a2.27,2.27,0,0,0,.73,1.59,2.32,2.32,0,0,0,1.62.6,2,2,0,0,0,1.95-1.15h1.85a3.73,3.73,0,0,1-1.36,1.87,4,4,0,0,1-2.44.72,4.17,4.17,0,0,1-2.12-.53,3.79,3.79,0,0,1-1.47-1.5,5,5,0,0,1,0-4.48,3.62,3.62,0,0,1,1.45-1.5A4.33,4.33,0,0,1,163,29.6a4.23,4.23,0,0,1,2.09.51,3.62,3.62,0,0,1,1.42,1.43,4.32,4.32,0,0,1,.51,2.12A5.26,5.26,0,0,1,167,34.5Zm-1.72-1.38a1.94,1.94,0,0,0-.68-1.51,2.4,2.4,0,0,0-1.63-.57,2.23,2.23,0,0,0-1.52.56,2.38,2.38,0,0,0-.75,1.52Z" style="fill:#fff"/><path d="M170,37.78a3,3,0,0,1-1.23-1,2.36,2.36,0,0,1-.48-1.36H170a1.2,1.2,0,0,0,.51.88,1.76,1.76,0,0,0,1.14.35,2,2,0,0,0,1.12-.27.85.85,0,0,0,.4-.72.74.74,0,0,0-.44-.69,8.69,8.69,0,0,0-1.41-.49,13.29,13.29,0,0,1-1.51-.5,2.6,2.6,0,0,1-1-.73,1.92,1.92,0,0,1-.43-1.31,2,2,0,0,1,.39-1.2,2.55,2.55,0,0,1,1.12-.87,4.15,4.15,0,0,1,1.67-.31,3.46,3.46,0,0,1,2.27.71,2.54,2.54,0,0,1,.92,1.94H173a1.23,1.23,0,0,0-.45-.88A1.67,1.67,0,0,0,171.5,31a1.8,1.8,0,0,0-1,.25.81.81,0,0,0-.36.68.72.72,0,0,0,.24.55,1.83,1.83,0,0,0,.59.36c.23.08.57.19,1,.32a10.65,10.65,0,0,1,1.48.49,2.69,2.69,0,0,1,1,.72,2,2,0,0,1,.44,1.28,2.14,2.14,0,0,1-.39,1.26,2.61,2.61,0,0,1-1.1.87,4.16,4.16,0,0,1-1.68.31A4,4,0,0,1,170,37.78Z" style="fill:#fff"/><path d="M178,37.78a3,3,0,0,1-1.23-1,2.36,2.36,0,0,1-.48-1.36H178a1.2,1.2,0,0,0,.51.88,1.76,1.76,0,0,0,1.14.35,2,2,0,0,0,1.12-.27.85.85,0,0,0,.4-.72.74.74,0,0,0-.44-.69,8.69,8.69,0,0,0-1.41-.49,13.29,13.29,0,0,1-1.51-.5,2.6,2.6,0,0,1-1-.73,1.92,1.92,0,0,1-.43-1.31,2,2,0,0,1,.39-1.2,2.55,2.55,0,0,1,1.12-.87,4.15,4.15,0,0,1,1.67-.31,3.46,3.46,0,0,1,2.27.71,2.54,2.54,0,0,1,.92,1.94h-1.71a1.23,1.23,0,0,0-.45-.88,1.67,1.67,0,0,0-1.09-.33,1.8,1.8,0,0,0-1,.25.81.81,0,0,0-.36.68.72.72,0,0,0,.24.55,1.83,1.83,0,0,0,.59.36c.23.08.57.19,1,.32a10.65,10.65,0,0,1,1.48.49,2.69,2.69,0,0,1,1,.72,2,2,0,0,1,.44,1.28,2.14,2.14,0,0,1-.39,1.26,2.61,2.61,0,0,1-1.1.87,4.16,4.16,0,0,1-1.68.31A4,4,0,0,1,178,37.78Z" style="fill:#fff"/><path d="M26.89,45.12V54H25.8V45.12Z" style="fill:#fff"/><path d="M28.75,48.92a3,3,0,0,1,1.12-1.18,3.1,3.1,0,0,1,1.59-.42,2.88,2.88,0,0,1,1.5.37,2.5,2.5,0,0,1,.95.93v-1.2H35V54H33.91V52.78a2.57,2.57,0,0,1-1,.95,2.93,2.93,0,0,1-1.5.38,3,3,0,0,1-1.58-.43,3.07,3.07,0,0,1-1.12-1.22,3.79,3.79,0,0,1-.41-1.77A3.73,3.73,0,0,1,28.75,48.92Zm4.86.48a2.12,2.12,0,0,0-.81-.84,2.16,2.16,0,0,0-1.12-.3,2.25,2.25,0,0,0-1.12.29,2.09,2.09,0,0,0-.8.84,2.68,2.68,0,0,0-.3,1.3,2.72,2.72,0,0,0,.3,1.31,2.12,2.12,0,0,0,.8.85,2.24,2.24,0,0,0,2.24,0,2.08,2.08,0,0,0,.81-.85,3,3,0,0,0,0-2.6Z" style="fill:#fff"/><path d="M42,48a2.77,2.77,0,0,1,.75,2.09V54H41.68V50.28a2.12,2.12,0,0,0-.5-1.51,1.76,1.76,0,0,0-1.34-.52,1.79,1.79,0,0,0-1.37.54A2.21,2.21,0,0,0,38,50.36V54h-1.1V47.42H38v.94a2.08,2.08,0,0,1,.88-.78,2.78,2.78,0,0,1,1.23-.28A2.66,2.66,0,0,1,42,48Z" style="fill:#fff"/><path d="M44.54,48.92a3,3,0,0,1,1.13-1.18,3.08,3.08,0,0,1,1.6-.42,2.94,2.94,0,0,1,1.43.35,2.58,2.58,0,0,1,1,.93V45.12h1.11V54H49.7V52.76a2.42,2.42,0,0,1-1,1,2.86,2.86,0,0,1-1.48.38,3.05,3.05,0,0,1-1.59-.43,3.1,3.1,0,0,1-1.13-1.22,3.78,3.78,0,0,1-.4-1.77A3.73,3.73,0,0,1,44.54,48.92Zm4.86.48a2.12,2.12,0,0,0-.81-.84,2.16,2.16,0,0,0-1.12-.3,2.19,2.19,0,0,0-1.11.29,2.05,2.05,0,0,0-.81.84,2.68,2.68,0,0,0-.3,1.3,2.72,2.72,0,0,0,.3,1.31,2.16,2.16,0,0,0,1.92,1.15,2.16,2.16,0,0,0,1.12-.3A2.08,2.08,0,0,0,49.4,52a3,3,0,0,0,0-2.6Z" style="fill:#fff"/><path d="M52.69,46.14a.72.72,0,0,1-.21-.53.72.72,0,0,1,.74-.74.69.69,0,0,1,.51.21.74.74,0,0,1,.21.53.72.72,0,0,1-.21.53.7.7,0,0,1-.51.22A.75.75,0,0,1,52.69,46.14Zm1.06,1.28V54H52.66V47.42Z" style="fill:#fff"/><path d="M60.76,48a2.8,2.8,0,0,1,.74,2.09V54H60.42V50.28a2.11,2.11,0,0,0-.49-1.51,2,2,0,0,0-2.72,0,2.21,2.21,0,0,0-.51,1.57V54H55.61V47.42H56.7v.94a2.14,2.14,0,0,1,.88-.78,2.78,2.78,0,0,1,1.23-.28A2.71,2.71,0,0,1,60.76,48Z" style="fill:#fff"/><path d="M67.49,47.69a2.53,2.53,0,0,1,1,.93v-1.2h1.1v6.72a3.39,3.39,0,0,1-.38,1.61,2.75,2.75,0,0,1-1.1,1.09,3.32,3.32,0,0,1-1.66.4,3.6,3.6,0,0,1-2.16-.61,2.38,2.38,0,0,1-1-1.67h1.08a1.77,1.77,0,0,0,.74,1,2.49,2.49,0,0,0,1.36.36,2,2,0,0,0,1.47-.56,2.15,2.15,0,0,0,.57-1.59V52.76a2.6,2.6,0,0,1-1,1,2.81,2.81,0,0,1-1.49.39,3.11,3.11,0,0,1-1.59-.43,3,3,0,0,1-1.12-1.22,3.79,3.79,0,0,1-.41-1.77,3.73,3.73,0,0,1,.41-1.77,2.9,2.9,0,0,1,1.12-1.18A3.1,3.1,0,0,1,66,47.32,2.87,2.87,0,0,1,67.49,47.69Zm.66,1.71a2.12,2.12,0,0,0-.81-.84,2.19,2.19,0,0,0-1.12-.3,2.25,2.25,0,0,0-1.12.29,2,2,0,0,0-.8.84,2.68,2.68,0,0,0-.3,1.3A2.72,2.72,0,0,0,64.3,52a2.06,2.06,0,0,0,.8.85,2.16,2.16,0,0,0,1.12.3,2.19,2.19,0,0,0,1.12-.3,2.08,2.08,0,0,0,.81-.85,3,3,0,0,0,0-2.6Z" style="fill:#fff"/><path d="M76.66,47.69a2.93,2.93,0,0,1,1.5-.37,3,3,0,0,1,1.58.42,2.92,2.92,0,0,1,1.13,1.18,3.73,3.73,0,0,1,.41,1.77,3.79,3.79,0,0,1-.41,1.77,3,3,0,0,1-2.71,1.65,2.92,2.92,0,0,1-1.49-.38,2.66,2.66,0,0,1-1-.94v4.33H74.6v-9.7h1.1v1.22A2.57,2.57,0,0,1,76.66,47.69Zm3.2,1.7a2.05,2.05,0,0,0-.81-.84,2.28,2.28,0,0,0-1.12-.29,2.15,2.15,0,0,0-1.11.3,2.1,2.1,0,0,0-.82.85A2.95,2.95,0,0,0,76,52a2.1,2.1,0,0,0,.82.85,2.15,2.15,0,0,0,1.11.3,2.19,2.19,0,0,0,1.12-.3,2.08,2.08,0,0,0,.81-.85,2.72,2.72,0,0,0,.3-1.31A2.68,2.68,0,0,0,79.86,49.39Z" style="fill:#fff"/><path d="M82.72,48.92a2.9,2.9,0,0,1,1.12-1.18,3,3,0,0,1,1.59-.42,2.93,2.93,0,0,1,1.5.37,2.57,2.57,0,0,1,.95.93v-1.2H89V54h-1.1V52.78a2.6,2.6,0,0,1-1,.95,2.92,2.92,0,0,1-1.49.38,2.94,2.94,0,0,1-2.7-1.65,3.67,3.67,0,0,1-.41-1.77A3.62,3.62,0,0,1,82.72,48.92Zm4.86.48a2.12,2.12,0,0,0-.81-.84,2.27,2.27,0,0,0-2.24,0,2.05,2.05,0,0,0-.81.84,2.68,2.68,0,0,0-.3,1.3,2.72,2.72,0,0,0,.3,1.31,2.08,2.08,0,0,0,.81.85,2.12,2.12,0,0,0,1.11.3,2.2,2.2,0,0,0,1.13-.3,2.08,2.08,0,0,0,.81-.85,3,3,0,0,0,0-2.6Z" style="fill:#fff"/><path d="M95,47.69a2.53,2.53,0,0,1,1,.93v-1.2h1.1v6.72a3.39,3.39,0,0,1-.38,1.61,2.81,2.81,0,0,1-1.1,1.09,3.32,3.32,0,0,1-1.66.4,3.6,3.6,0,0,1-2.16-.61,2.38,2.38,0,0,1-1-1.67h1.08a1.77,1.77,0,0,0,.74,1,2.49,2.49,0,0,0,1.36.36,2,2,0,0,0,1.47-.56A2.15,2.15,0,0,0,96,54.14V52.76a2.6,2.6,0,0,1-1,1,2.81,2.81,0,0,1-1.49.39A3.08,3.08,0,0,1,92,53.68a3,3,0,0,1-1.12-1.22,3.79,3.79,0,0,1-.41-1.77,3.73,3.73,0,0,1,.41-1.77A2.9,2.9,0,0,1,92,47.74a3.07,3.07,0,0,1,1.59-.42A2.87,2.87,0,0,1,95,47.69Zm.66,1.71a2.12,2.12,0,0,0-.81-.84,2.19,2.19,0,0,0-1.12-.3,2.22,2.22,0,0,0-1.12.29,2,2,0,0,0-.8.84,2.68,2.68,0,0,0-.3,1.3,2.72,2.72,0,0,0,.3,1.31,2.06,2.06,0,0,0,.8.85,2.13,2.13,0,0,0,1.12.3,2.19,2.19,0,0,0,1.12-.3,2.08,2.08,0,0,0,.81-.85,3,3,0,0,0,0-2.6Z" style="fill:#fff"/><path d="M104.9,51.12H99.65a2,2,0,0,0,2.13,2.06,2.06,2.06,0,0,0,1.19-.33,1.77,1.77,0,0,0,.66-.88h1.18a2.82,2.82,0,0,1-1.06,1.54,3.16,3.16,0,0,1-2,.6,3.31,3.31,0,0,1-1.67-.42A3,3,0,0,1,99,52.49a3.67,3.67,0,0,1-.42-1.79,3.78,3.78,0,0,1,.41-1.79,2.88,2.88,0,0,1,1.14-1.18,3.4,3.4,0,0,1,1.7-.41,3.32,3.32,0,0,1,1.66.4,2.87,2.87,0,0,1,1.11,1.13,3.28,3.28,0,0,1,.39,1.61A5.07,5.07,0,0,1,104.9,51.12Zm-1.36-2a1.91,1.91,0,0,0-.75-.69,2.45,2.45,0,0,0-1.05-.23,2,2,0,0,0-1.41.53,2.11,2.11,0,0,0-.67,1.46h4.15A2,2,0,0,0,103.54,49.16Z" style="fill:#fff"/><path d="M32.22,70l-1.09-1.1a4.37,4.37,0,0,1-1.31.94,3.92,3.92,0,0,1-1.57.3,3.51,3.51,0,0,1-1.53-.31,2.31,2.31,0,0,1-1-.89,2.39,2.39,0,0,1-.37-1.34,2.51,2.51,0,0,1,.5-1.54,3.17,3.17,0,0,1,1.47-1,3.61,3.61,0,0,1-.55-.84,2,2,0,0,1-.17-.84,1.78,1.78,0,0,1,.27-1,1.85,1.85,0,0,1,.77-.66,2.72,2.72,0,0,1,1.17-.24,2.34,2.34,0,0,1,1.12.25,1.68,1.68,0,0,1,.72.7,1.89,1.89,0,0,1,.22,1H29.75a1,1,0,0,0-1-1.05,1.12,1.12,0,0,0-.78.27.91.91,0,0,0-.29.69,1.34,1.34,0,0,0,.2.69,4.69,4.69,0,0,0,.66.83L31,67.36l.22-.34.81-1.36h1.18l-1,1.7a7.75,7.75,0,0,1-.48.76L33.65,70Zm-2.8-1a3.21,3.21,0,0,0,1-.78L28,65.7c-1,.4-1.54,1-1.54,1.86a1.52,1.52,0,0,0,.51,1.18,1.89,1.89,0,0,0,1.33.47A2.79,2.79,0,0,0,29.42,69Z" style="fill:#fff"/><path d="M43.84,67.12H38.58a2.06,2.06,0,0,0,2.14,2.06,2,2,0,0,0,1.18-.33,1.71,1.71,0,0,0,.66-.88h1.18a2.82,2.82,0,0,1-1.06,1.54,3.13,3.13,0,0,1-2,.6A3.33,3.33,0,0,1,39,69.69a3,3,0,0,1-1.16-1.2,3.67,3.67,0,0,1-.42-1.79,3.78,3.78,0,0,1,.41-1.79A2.9,2.9,0,0,1,39,63.73a3.37,3.37,0,0,1,1.7-.41,3.3,3.3,0,0,1,1.65.4,2.87,2.87,0,0,1,1.11,1.13,3.28,3.28,0,0,1,.39,1.61Q43.87,66.78,43.84,67.12Zm-1.37-2a1.91,1.91,0,0,0-.75-.69,2.45,2.45,0,0,0-1-.23,2,2,0,0,0-1.41.53,2.16,2.16,0,0,0-.67,1.46h4.15A2,2,0,0,0,42.47,65.16Z" style="fill:#fff"/><path d="M45.31,64.92a3,3,0,0,1,1.12-1.18A3.12,3.12,0,0,1,48,63.32a2.9,2.9,0,0,1,1.42.35,2.61,2.61,0,0,1,1,.93V61.12h1.11V70H50.47V68.76a2.42,2.42,0,0,1-1,1,2.87,2.87,0,0,1-1.49.38,3.11,3.11,0,0,1-1.59-.43,3.07,3.07,0,0,1-1.12-1.22,3.79,3.79,0,0,1-.41-1.77A3.73,3.73,0,0,1,45.31,64.92Zm4.86.48a2.12,2.12,0,0,0-.81-.84,2.16,2.16,0,0,0-1.12-.3,2.25,2.25,0,0,0-1.12.29,2.09,2.09,0,0,0-.8.84,2.68,2.68,0,0,0-.3,1.3,2.72,2.72,0,0,0,.3,1.31,2.12,2.12,0,0,0,.8.85,2.24,2.24,0,0,0,2.24,0,2.08,2.08,0,0,0,.81-.85,3,3,0,0,0,0-2.6Z" style="fill:#fff"/><path d="M59.26,63.42V70h-1.1V69a2,2,0,0,1-.87.78,2.66,2.66,0,0,1-1.23.29,3,3,0,0,1-1.38-.32,2.28,2.28,0,0,1-1-1,3.08,3.08,0,0,1-.36-1.54V63.42h1.08v3.71a2.11,2.11,0,0,0,.5,1.5,1.76,1.76,0,0,0,1.34.52,1.81,1.81,0,0,0,1.38-.54,2.21,2.21,0,0,0,.5-1.57V63.42Z" style="fill:#fff"/><path d="M61.1,64.92a2.94,2.94,0,0,1,1.14-1.18,3.62,3.62,0,0,1,3.66.16,2.84,2.84,0,0,1,1,1.64H65.76a1.69,1.69,0,0,0-.65-1,2.06,2.06,0,0,0-1.21-.35,1.92,1.92,0,0,0-1.51.64,2.62,2.62,0,0,0-.58,1.82,2.67,2.67,0,0,0,.58,1.84,1.92,1.92,0,0,0,1.51.64,2.07,2.07,0,0,0,1.2-.33,1.74,1.74,0,0,0,.66-1h1.18a2.89,2.89,0,0,1-1.06,1.61,3.14,3.14,0,0,1-2,.61,3.25,3.25,0,0,1-1.66-.42A3,3,0,0,1,61.1,68.5a3.79,3.79,0,0,1-.4-1.8A3.74,3.74,0,0,1,61.1,64.92Z" style="fill:#fff"/><path d="M68.39,64.92a2.9,2.9,0,0,1,1.12-1.18,3.1,3.1,0,0,1,1.59-.42,2.88,2.88,0,0,1,1.5.37,2.57,2.57,0,0,1,1,.93v-1.2h1.1V70h-1.1V68.78a2.6,2.6,0,0,1-1,1,2.9,2.9,0,0,1-1.49.38,2.94,2.94,0,0,1-2.7-1.65A3.79,3.79,0,0,1,68,66.69,3.73,3.73,0,0,1,68.39,64.92Zm4.86.48a2.12,2.12,0,0,0-.81-.84,2.19,2.19,0,0,0-1.12-.3,2.25,2.25,0,0,0-1.12.29,2,2,0,0,0-.8.84,2.68,2.68,0,0,0-.3,1.3A2.72,2.72,0,0,0,69.4,68a2.06,2.06,0,0,0,.8.85,2.16,2.16,0,0,0,1.12.3,2.19,2.19,0,0,0,1.12-.3,2.08,2.08,0,0,0,.81-.85,3,3,0,0,0,0-2.6Z" style="fill:#fff"/><path d="M77.83,64.32V68.2a.91.91,0,0,0,.21.68,1,1,0,0,0,.7.2h.81V70h-1a1.94,1.94,0,0,1-1.36-.42,1.78,1.78,0,0,1-.46-1.38V64.32h-.85v-.9h.85V61.77h1.09v1.65h1.72v.9Z" style="fill:#fff"/><path d="M80.9,62.14a.72.72,0,0,1-.21-.53.72.72,0,0,1,.74-.74.69.69,0,0,1,.51.21.74.74,0,0,1,.21.53.72.72,0,0,1-.21.53.7.7,0,0,1-.51.22A.75.75,0,0,1,80.9,62.14ZM82,63.42V70H80.87V63.42Z" style="fill:#fff"/><path d="M85,69.69a2.94,2.94,0,0,1-1.17-1.2,3.88,3.88,0,0,1,0-3.57A3,3,0,0,1,85,63.73a3.71,3.71,0,0,1,3.39,0,3.07,3.07,0,0,1,1.19,1.18,3.57,3.57,0,0,1,.44,1.79,3.47,3.47,0,0,1-.45,1.79,3.13,3.13,0,0,1-1.22,1.2,3.48,3.48,0,0,1-1.7.42A3.38,3.38,0,0,1,85,69.69Zm2.78-.82a2.09,2.09,0,0,0,.84-.83,3.05,3.05,0,0,0,0-2.68,2.09,2.09,0,0,0-.81-.83,2.3,2.3,0,0,0-1.1-.27,2.23,2.23,0,0,0-1.09.27,2,2,0,0,0-.8.83,2.74,2.74,0,0,0-.3,1.34,2.94,2.94,0,0,0,.29,1.36,2,2,0,0,0,.79.82,2.3,2.3,0,0,0,2.18,0Z" style="fill:#fff"/><path d="M96.65,64a2.8,2.8,0,0,1,.74,2.09V70H96.31V66.28a2.11,2.11,0,0,0-.49-1.51,2,2,0,0,0-2.72,0,2.21,2.21,0,0,0-.51,1.57V70H91.5V63.42h1.09v.94a2.14,2.14,0,0,1,.88-.78,2.84,2.84,0,0,1,1.23-.28A2.71,2.71,0,0,1,96.65,64Z" style="fill:#fff"/><path d="M99.18,64.92a3,3,0,0,1,1.12-1.18,3.1,3.1,0,0,1,1.59-.42,2.88,2.88,0,0,1,1.5.37,2.5,2.5,0,0,1,1,.93v-1.2h1.1V70h-1.1V68.78a2.6,2.6,0,0,1-1,1,2.87,2.87,0,0,1-1.49.38,3,3,0,0,1-1.58-.43,3,3,0,0,1-1.12-1.22,3.79,3.79,0,0,1-.41-1.77A3.73,3.73,0,0,1,99.18,64.92Zm4.86.48a2.12,2.12,0,0,0-.81-.84,2.19,2.19,0,0,0-1.12-.3,2.25,2.25,0,0,0-1.12.29,2.09,2.09,0,0,0-.8.84,2.68,2.68,0,0,0-.3,1.3,2.72,2.72,0,0,0,.3,1.31,2.12,2.12,0,0,0,.8.85,2.16,2.16,0,0,0,1.12.3,2.19,2.19,0,0,0,1.12-.3A2.08,2.08,0,0,0,104,68a3,3,0,0,0,0-2.6Z" style="fill:#fff"/><path d="M108.38,61.12V70h-1.09V61.12Z" style="fill:#fff"/><path d="M115.51,63.69a2.87,2.87,0,0,1,1.49-.37,3.1,3.1,0,0,1,1.59.42,2.9,2.9,0,0,1,1.12,1.18,3.73,3.73,0,0,1,.41,1.77,3.79,3.79,0,0,1-.41,1.77,3,3,0,0,1-1.12,1.22,3.11,3.11,0,0,1-1.59.43,2.88,2.88,0,0,1-1.48-.38,2.69,2.69,0,0,1-1-.94v4.33h-1.09v-9.7h1.09v1.22A2.68,2.68,0,0,1,115.51,63.69Zm3.19,1.7a2.05,2.05,0,0,0-.81-.84,2.25,2.25,0,0,0-1.12-.29,2.15,2.15,0,0,0-1.11.3,2.08,2.08,0,0,0-.81.85,2.86,2.86,0,0,0,0,2.59,2.08,2.08,0,0,0,.81.85,2.22,2.22,0,0,0,2.23,0,2.08,2.08,0,0,0,.81-.85,2.72,2.72,0,0,0,.3-1.31A2.68,2.68,0,0,0,118.7,65.39Z" style="fill:#fff"/><path d="M122.65,61.12V70h-1.09V61.12Z" style="fill:#fff"/><path d="M124.51,64.92a3,3,0,0,1,1.12-1.18,3.1,3.1,0,0,1,1.59-.42,2.88,2.88,0,0,1,1.5.37,2.5,2.5,0,0,1,.95.93v-1.2h1.1V70h-1.1V68.78a2.6,2.6,0,0,1-1,1,2.87,2.87,0,0,1-1.49.38,3,3,0,0,1-1.58-.43,3,3,0,0,1-1.12-1.22,3.79,3.79,0,0,1-.41-1.77A3.73,3.73,0,0,1,124.51,64.92Zm4.86.48a2.12,2.12,0,0,0-.81-.84,2.16,2.16,0,0,0-1.12-.3,2.25,2.25,0,0,0-1.12.29,2.09,2.09,0,0,0-.8.84,2.68,2.68,0,0,0-.3,1.3,2.72,2.72,0,0,0,.3,1.31,2.12,2.12,0,0,0,.8.85,2.24,2.24,0,0,0,2.24,0,2.08,2.08,0,0,0,.81-.85,3,3,0,0,0,0-2.6Z" style="fill:#fff"/><path d="M134,64.32V68.2a.91.91,0,0,0,.21.68,1,1,0,0,0,.71.2h.8V70h-1a2,2,0,0,1-1.37-.42,1.78,1.78,0,0,1-.46-1.38V64.32H132v-.9h.85V61.77H134v1.65h1.72v.9Z" style="fill:#fff"/><path d="M139.67,64.32h-1.38V70h-1.1V64.32h-.85v-.9h.85V63a2.07,2.07,0,0,1,.57-1.62,2.7,2.7,0,0,1,1.83-.51v.91a1.43,1.43,0,0,0-1,.29,1.21,1.21,0,0,0-.29.93v.46h1.38Z" style="fill:#fff"/><path d="M142.13,69.69a2.94,2.94,0,0,1-1.17-1.2,3.88,3.88,0,0,1,0-3.57,3,3,0,0,1,1.19-1.19,3.71,3.71,0,0,1,3.39,0,3.07,3.07,0,0,1,1.19,1.18,3.57,3.57,0,0,1,.44,1.79,3.47,3.47,0,0,1-.45,1.79,3.13,3.13,0,0,1-1.22,1.2,3.48,3.48,0,0,1-1.7.42A3.38,3.38,0,0,1,142.13,69.69Zm2.78-.82a2.07,2.07,0,0,0,.83-.83,2.53,2.53,0,0,0,.32-1.34,2.63,2.63,0,0,0-.31-1.34,2,2,0,0,0-.82-.83,2.26,2.26,0,0,0-1.09-.27,2.3,2.3,0,0,0-1.1.27,2,2,0,0,0-.79.83,2.74,2.74,0,0,0-.3,1.34,2.82,2.82,0,0,0,.29,1.36,2,2,0,0,0,.79.82,2.19,2.19,0,0,0,1.08.27A2.22,2.22,0,0,0,144.91,68.87Z" style="fill:#fff"/><path d="M150.53,63.62a2.53,2.53,0,0,1,1.3-.32v1.13h-.28c-1.23,0-1.84.67-1.84,2V70h-1.09V63.42h1.09v1.07A2.09,2.09,0,0,1,150.53,63.62Z" style="fill:#fff"/><path d="M162.37,63.62a2.26,2.26,0,0,1,.95,1,3.19,3.19,0,0,1,.35,1.54V70h-1.08V66.28a2.16,2.16,0,0,0-.49-1.51,1.72,1.72,0,0,0-1.31-.52,1.75,1.75,0,0,0-1.36.55,2.22,2.22,0,0,0-.5,1.58V70h-1.08V66.28a2.16,2.16,0,0,0-.49-1.51,1.72,1.72,0,0,0-1.31-.52,1.75,1.75,0,0,0-1.36.55,2.22,2.22,0,0,0-.5,1.58V70h-1.1V63.42h1.1v1a2.08,2.08,0,0,1,.87-.79,2.65,2.65,0,0,1,1.2-.28,2.87,2.87,0,0,1,1.47.38,2.2,2.2,0,0,1,.94,1.09,2.12,2.12,0,0,1,.92-1.08A2.62,2.62,0,0,1,161,63.3,2.91,2.91,0,0,1,162.37,63.62Z" style="fill:#fff"/></g></g></svg>