<svg xmlns="http://www.w3.org/2000/svg" viewBox="0 0 251.21 267.52"><g id="Layer_2" data-name="Layer 2"><path d="M201.93,91.69c.33-.71,2.94-.12,3.89.15,3.34,1,6.12,3.59,5.73,4.41-.19.39-1.07.32-1.81.26C205.42,96.15,201.47,92.68,201.93,91.69Z" style="fill:#26010c"/><path d="M200.59,94.59c.07-.63.7-.8,1.6-2.59.57-1.11.53-1.41.79-1.78,1.43-2,9.82.17,9.93,2.55.07,1.53-3.31,2.42-3.37,5.09,0,.81.3,1.1.07,1.4C208.54,100.66,200.3,97,200.59,94.59Z" style="fill:#f9f0e8"/><path d="M119.85,252.7c-1-2.65.63-4.1-.79-6.3a4.93,4.93,0,0,0-2.49-2c-.45-.15-1.27-.21-4.76.68-2.24.57-3.36.86-3.63,1.33-1.79,3.14,15.39,17.09,17.08,15.51.68-.64-1.13-3.78-1.39-4.23C122.13,254.69,120.69,254.91,119.85,252.7Z" style="fill:#2d1704"/><path d="M139.47,227c.59,4.77-5.63,9.94-18.81,20.4a17.35,17.35,0,0,1-4.5,2.58c-2.26.87-4.69,1.82-6.27.88-2.9-1.72-1.66-9-.3-13.2.65-2,1.78-4,4-7.75,3.85-6.55,5.77-9.83,7.49-10.72C127.17,216,138.77,221.23,139.47,227Z" style="fill:#f9ddca"/><path d="M129.45,218.74c-3-.77-6.06-.78-8.36.41-1.72.89-3.64,4.17-7.49,10.72-2.23,3.8-3.36,5.74-4,7.75a28.78,28.78,0,0,0-1.46,8.66C113.06,235.89,121.44,227.13,129.45,218.74Z" style="fill:#f2d0b6"/><path d="M123.42,245.78c-.13-1.23-3.2-.85-6.26-2.75-4.81-3-5.45-9-7-8.69-.64.13-.47,1.16-1.69,3.7-1.54,3.21-2.6,3.22-2.77,4.93-.28,2.82,2.3,5.84,2.64,5.7h0a15.32,15.32,0,0,0,1.24,1.68c1,1.19,4.08,4.79,6.35,4.2,1.66-.42,1.11-2.61,3.79-5.44C121.77,247,123.52,246.71,123.42,245.78Z" style="fill:#2d1704"/><path d="M113,238.38c-1.29-2.26-1.88-4.22-2.77-4-.64.13-.47,1.16-1.69,3.7-1.54,3.21-2.6,3.22-2.77,4.93-.28,2.8,2.25,5.78,2.63,5.7A32.91,32.91,0,0,1,113,238.38Z" style="fill:#211004"/><path d="M110.7,248c-.41-1.4-1.65-5.67-4.14-6.13-2.25-.42-4.71,2.45-5.62,4.66a4.69,4.69,0,0,0-.49,2.18c0,1,.51,2.25,3.41,5,2.36,2.23,2.3,1.61,3.35,2.86,2.48,3,2.33,5.78,6.43,8.27s9.78,3.74,11.86,1.64c1.22-1.23,1-3.2.92-4.32-.18-2.08-1.27-5-3.14-5.34-.84-.18-1,.34-2.26.51-2.52.33-4.72-1.32-6.21-2.44a9.94,9.94,0,0,1-3-3.18C111.06,250.31,111.16,249.58,110.7,248Z"/><path d="M104.43,256.52c1.54-.52,2.13-2.91,2.27-3.46,1-4.25-2.11-8.72-3.85-8.26-.44.12-.49.49-2.6,4.55-1.3,2.49-1.46,2.72-1.46,3.29,0,2.27,2.79,3.5,4.25,3.85A2.29,2.29,0,0,0,104.43,256.52Z"/><path d="M115.77,257.07c1.85-.19,2.67-3.15,4.43-2.95.55.06.81.4,1,.24.41-.35-.3-2.55-1.8-3l-.09,0a4.43,4.43,0,0,0-2.93.47c-2.43,1.13-3.64,1.69-3.69,2.64C112.62,255.68,114.34,257.22,115.77,257.07Z"/><path d="M236.19,226.21c-2.74.73-4-1.05-6.35.14a4.92,4.92,0,0,0-2.21,2.28c-.2.44-.34,1.25.19,4.81.34,2.28.51,3.43,1,3.74,2.95,2.11,18.57-13.57,17.16-15.41-.56-.74-3.86.74-4.34.95C238.4,224.14,238.47,225.6,236.19,226.21Z" style="fill:#2d1704"/><path d="M233.31,235.93c1.09-1.47.4-4-.25-6.33a17.37,17.37,0,0,0-2.1-4.74c-9.07-14.17-13.58-20.88-18.39-20.78-3.56.07-7.35,4.29-9.14,9a138.82,138.82,0,0,0,29.43,23.31A2.18,2.18,0,0,0,233.31,235.93Z" style="fill:#f9ddca"/><path d="M203.43,213.08c-1.11,2.93-1.46,6-.5,8.49.72,1.8,3.78,4.05,9.91,8.54,3.55,2.61,5.37,3.93,7.3,4.78,3.75,1.66,10.26,3.5,12.72,1.5A138.82,138.82,0,0,1,203.43,213.08Z" style="fill:#f2d0b6"/><path d="M229.67,222c-1.24,0-1.18,3.09-3.38,5.94-3.45,4.49-9.51,4.51-9.35,6.07.06.65,1.1.58,3.51,2.06,3,1.85,2.94,2.91,4.63,3.25,2.77.57,6-1.69,5.93-2.05h0a15.85,15.85,0,0,0,1.8-1.06c1.29-.89,5.18-3.57,4.83-5.89-.26-1.69-2.49-1.38-5-4.33C230.67,223.71,230.6,222,229.67,222Z" style="fill:#2d1704"/><path d="M223.38,230.51c-3.16,2-6.56,2.29-6.44,3.46.06.65,1.1.58,3.51,2.06,3,1.85,2.94,2.91,4.63,3.25,2.77.57,6-1.69,5.93-2.05a15.85,15.85,0,0,0,1.8-1.06c.19-.13.45-.31.73-.52A24.38,24.38,0,0,1,223.38,230.51Z" style="fill:#211004"/><path d="M237.64,230.28c-.26-1.69-2.49-1.38-5-4.33-1.93-2.24-2-4-2.93-4-1.24,0-1.18,3.09-3.38,5.94a10.93,10.93,0,0,1-2.91,2.61,24.38,24.38,0,0,0,10.16,5.14C235.17,234.48,237.94,232.25,237.64,230.28Z" style="fill:#2d1704"/><path d="M230.58,234.84c-1.44.26-5.82,1.06-6.53,3.49-.64,2.2,2,4.93,4.07,6.07a4.73,4.73,0,0,0,2.12.7c1,.05,2.29-.28,5.31-2.88,2.46-2.12,1.83-2.13,3.19-3,3.21-2.17,6-1.73,8.87-5.56s4.72-9.35,2.84-11.63c-1.1-1.34-3.08-1.34-4.21-1.36-2.08,0-5.07.76-5.63,2.58-.26.82.24,1,.28,2.3.08,2.55-1.79,4.56-3.06,5.93a9.79,9.79,0,0,1-3.46,2.65C232.92,234.72,232.2,234.54,230.58,234.84Z"/><path d="M238.42,241.94c-.36-1.58-2.67-2.42-3.2-2.61-4.13-1.48-8.9,1.21-8.61,3,.07.46.43.54,4.26,3.05,2.35,1.54,2.55,1.73,3.12,1.78,2.27.19,3.76-2.41,4.26-3.83A2.33,2.33,0,0,0,238.42,241.94Z"/><path d="M240.12,230.71c0-1.86-2.86-3-2.49-4.7.12-.55.48-.77.34-1-.3-.44-2.56,0-3.16,1.49l0,.09a4.45,4.45,0,0,0,.17,3c.87,2.52,1.31,3.79,2.25,3.93C238.42,233.7,240.13,232.15,240.12,230.71Z"/><path d="M118.82,245.92c-2-2.81-1.87-4.35-6.33-16.53-1.17-3.2-1.93-5.16-2.44-6.44-.75-1.86-.85-2.19-1-2.61s-2.26-6.17-2-9.84c.34-4.17,3.74-4.46,10.49-12.57,3.45-4.14,5.51-6.62,6.87-10.65,1.23-3.65.63-4.19,1.76-11.33a52.19,52.19,0,0,1,3.22-11.21c1.5-3.78,3.2-7.17,6.53-8.47,4.49-1.75,8,2.17,14,4,15.84,4.84,29.14-11.86,37-6,.91.69,2.45,4.24,5.54,11.33,2.64,6.09,4.32,10.72,4.49,11.06,3.43,6.83,14.76,21.42,32.86,37.73-.38,5.51-2.25,8.67-3.79,10.49-6.36,7.52-15.72,2.67-29.79,10.91-2.19,1.29-4.93,2.83-10.25,6.22-12.3,7.84-12.34,9.29-17.05,11.76-15.32,8-32.72,2-35,1.21C128.12,252.94,122.54,251.2,118.82,245.92Z" style="fill:#0c0c0c"/><path d="M118.82,245.92c-2-2.81-1.87-4.35-6.33-16.53-1.17-3.2-1.93-5.16-2.44-6.44-.75-1.86-.85-2.19-1-2.61s-2.26-6.17-2-9.84c.34-4.17,3.74-4.46,10.49-12.57,3.45-4.14,5.51-6.62,6.87-10.65,1.23-3.65.63-4.19,1.76-11.33a52.19,52.19,0,0,1,3.22-11.21c1.5-3.78,3.2-7.17,6.53-8.47,4.49-1.75,8,2.17,14,4,15.84,4.84,29.14-11.86,37-6,.91.69,2.45,4.24,5.54,11.33,2.64,6.09,4.32,10.72,4.49,11.06,3.43,6.83,14.76,21.42,32.86,37.73-.38,5.51-2.25,8.67-3.79,10.49-6.36,7.52-15.72,2.67-29.79,10.91-2.19,1.29-4.93,2.83-10.25,6.22-12.3,7.84-12.34,9.29-17.05,11.76-15.32,8-32.72,2-35,1.21C128.12,252.94,122.54,251.2,118.82,245.92Z" style="fill:#0c0c0c"/><path d="M141,163.58c0-1.48,1-4.1,2.35-6.6-2.13-1-4.09-1.69-6.31-.83-3.36,1.3-5.06,4.69-6.57,8.47a51.79,51.79,0,0,0-3.23,11.22c-1.14,7.13-.54,7.67-1.78,11.32-1.36,4-3.44,6.51-6.91,10.66-6.78,8.1-10.2,8.39-10.54,12.57-.29,3.66,1.85,9.5,2,9.83s.26.75,1,2.62l.27.66C134.91,218.92,139.73,184.67,141,163.58Z" style="fill:#020202"/><path d="M158.33,119.13a4.92,4.92,0,0,1,1.41-3.72,4.42,4.42,0,0,1,2.76-.78c.91,0,3.06-.85,7.37-2.45,14.26-5.3,22.58-12.63,22.58-12.63,4.4-3.89,7.69-8.12,10.21-7.11,1.4.56,1.61,2.37,3.85,3.3,2.44,1,4.06-.32,4.74.3,2.16,2-6.65,22.06-25.47,31.52-4.7,2.36-13.49,6.78-20.37,3C161.09,128.13,158.19,122.83,158.33,119.13Z" style="fill:#540419"/><path d="M209.75,103.06c1.71-3.65,2.22-6.35,1.5-7s-2.3.71-4.74-.3c-2.24-.93-2.45-2.74-3.85-3.3-2.52-1-5.81,3.22-10.21,7.11,0,0-8.32,7.33-22.58,12.63-4.31,1.6-6.46,2.4-7.37,2.45a4.42,4.42,0,0,0-2.76.78,4.92,4.92,0,0,0-1.41,3.72,11.27,11.27,0,0,0,1.49,5.51C178.7,122.3,196.53,116.52,209.75,103.06Z" style="fill:#540419"/><path d="M160.38,129a29.21,29.21,0,0,0,5,1.5,32.14,32.14,0,0,0,20.37-3,55.05,55.05,0,0,0,24-24.5,73,73,0,0,1-31.66,22.26A69.75,69.75,0,0,1,160.38,129Z" style="fill:#440619"/><path d="M160.25,113.28c.38-.6,1.39-2.22.8-3.15s-2-.72-2.77-.66c-13.68,1.13-25.82,2.14-25.91,5.6-.07,2.78,7.65,6,14.29,5.62A17.81,17.81,0,0,0,160.25,113.28Z" style="fill:#26010c"/><path d="M137.18,107.54c.38-.37.31-.51.64-.77,1.27-1,3.39-.32,8.35-2.59,3-1.39,4.58-2.68,7.51-2.67,1.65,0,2.56,0,3.36.65,2.87,2.27-1.23,8.22,1.91,14.11,1.17,2.2,2.25,2.38,2.16,3.69-.12,2.05-6.29,4.66-13.39,5.52-4.73.57-9.79,1.18-11.35-1.32-1.3-2.07,1.29-3.87.32-8.29-.73-3.33-3-6-2.09-6.92C135.08,108.44,136.05,108.64,137.18,107.54Z" style="fill:#f9ddca"/><path d="M157.7,110.54c.07-3.69,1.26-6.86-.66-8.38-.8-.63-1.71-.64-3.36-.65-2.93,0-4.47,1.28-7.51,2.67-5,2.27-7.08,1.6-8.35,2.59-.33.26-.26.4-.64.77-1.13,1.1-2.1.9-2.58,1.41-.76.79.82,2.92,1.73,5.64C143.93,115.76,153.51,116.24,157.7,110.54Z" style="fill:#f2d0b6"/><path d="M186.67,155.63c.08-.26,1.41-4.95-1.2-8.9-7.49-11.33-41.79-8.06-52.21,9.49-1.48,2.49-3.78,6.35-2.31,9.45C135.93,176.23,181.7,172.24,186.67,155.63Z"/><path d="M135.05,119.7c4.88-1.09,6.9,4,13,4.1a15.07,15.07,0,0,0,8.66-2.83c3.34-2.6,3.18-5.21,5.76-6.34,3.14-1.38,7,1,9.9,2.79,11.95,7.49,15.44,20.16,16.13,22.9,1.79,7.15.45,10.38.09,11.18-1.37,3.06-3.83,4.8-7.79,7.08-17.82,10.28-41.46,10.33-41.46,10.33-4.52,0-9.31-.3-12.16-3.62a11.23,11.23,0,0,1-2.32-7c-.78-15.65-5.18-18.08-2.09-26.06a22.69,22.69,0,0,1,7.32-9.85A12.15,12.15,0,0,1,135.05,119.7Z" style="fill:#540419"/><path d="M140.37,168.88c-.65,0-1,0-1,0-4.52,0-9.31-.3-12.15-3.62a8.69,8.69,0,0,1-1.84-3.61,13.8,13.8,0,0,1-.49-3.44c0-2.81,1.18-12.65,3.29-26,.79-3.41,1.53-5.1,2.23-5.09.22,0,.43.18.64.52,1.72,9.41,2.09,15,2.07,18.47,0,.59,0,1.48.14,2.78.16,2,.45,5,.85,9.27a13.22,13.22,0,0,0,6.26,10.64Z" style="fill:#440619"/><path d="M159.57,113.48a3.37,3.37,0,0,0,1.49-2.12,7.59,7.59,0,0,0,0-1.23c.07,0,.41,1,1.51,5a5.48,5.48,0,0,1,0,1.72c-.44,2.53-2.7,4-4,4.84a25.49,25.49,0,0,1-20.66,2.67,26.13,26.13,0,0,1-5.89-2.63c.11-.76.2-1.54.28-2.36a47.79,47.79,0,0,0,.19-5,22.87,22.87,0,0,0,10.34,4.12A24.42,24.42,0,0,0,159.57,113.48Z" style="fill:#440619"/><path d="M209.58,98.34a4,4,0,0,0,2-2.09,21.78,21.78,0,0,1-6.64-2.49,21.08,21.08,0,0,1-3-2.07A2.52,2.52,0,0,0,201,93a2.7,2.7,0,0,0,.19,1.74c1,2.51,4.58,3.39,5.25,3.56A4.51,4.51,0,0,0,209.58,98.34Z" style="fill:#440619"/><path d="M122.06,249.4q2.23-1.93,4.49-3.85" style="fill:#00000e"/><path d="M219.92,85.61c-.69,1.72-3.47,8.7-9.48,10.5a8.09,8.09,0,0,1-3.94.27c-3.81-.78-5.66-4.47-5.93-5-.78-1.63-.07-1.34-1-4.52-.68-2.19-2.18-6.08-1.34-7.22h0c.12-.16,1-1.3,1.9-1.16,1.66.26,1.77,4.53,3.46,4.74a1.78,1.78,0,0,0,1.34-.6c3.53-3.16,3.09-14.78,6.84-16.44a3.23,3.23,0,0,1,2.18-.05,4.26,4.26,0,0,1,.66.22,10.65,10.65,0,0,1,3.07,2,9.47,9.47,0,0,1,.73.69,13.74,13.74,0,0,1,2.4,3.24C223.33,77.12,221.29,82.19,219.92,85.61Z" style="fill:#f9ddca"/><path d="M202.45,94.05a7.82,7.82,0,0,0,4.05,2.33,8.17,8.17,0,0,0,3.94-.26c4.62-1.39,7.32-5.81,8.64-8.57C215.32,92.6,208.45,95.58,202.45,94.05Z" style="fill:#f2d0b6"/><path d="M107.41,199.09a3.12,3.12,0,0,1-3.56-.44c-1.57-1.47-.33-4.12-1.25-4.69-1.64-1-6,7.73-10.74,7.43l-.33,0-.14,0a4.49,4.49,0,0,1-.92-.3,5.24,5.24,0,0,1-1.12-.68h0l-.1-.08-.24-.2a8.93,8.93,0,0,1-1.06-1.14c-.18-.22-.34-.45-.5-.69a16.26,16.26,0,0,1-2.51-6.85c-.72-6.19,3-12.32,8.08-15.18l.45-.25c.32-.17.66-.33,1-.48s.71-.28,1.07-.4.58-.18,1.07-.3l.23-.06c.33-.08.69-.16,1.09-.22l.39-.05.26,0a5.09,5.09,0,0,1,.56,0l.55,0h.11a7.11,7.11,0,0,1,.92.06l.33.05a6.08,6.08,0,0,1,1.32.33c.17.06.35.14.52.22l.49.26h0q.24.15.48.33c1.61,1.25,1.35,2.85,2.85,10.19C108.94,196.73,108.36,198.45,107.41,199.09Z" style="fill:#f9ddca"/><path d="M87.68,191a20.05,20.05,0,0,0,1.56,9.27l-.24-.2a8.93,8.93,0,0,1-1.06-1.14c-.18-.22-.34-.45-.5-.69a16.26,16.26,0,0,1-2.51-6.85A16.74,16.74,0,0,1,93,176.2l.45-.25c.32-.17.66-.33,1-.48s.71-.28,1.07-.4.58-.18,1.07-.3l.23-.06c.33-.08.69-.16,1.09-.22-1.09.71-8.36,5.66-10,14.44,0,0,0,0,0,0,0,.16-.06.33-.08.5l0,.18a.13.13,0,0,1,0,.06C87.76,190.11,87.71,190.54,87.68,191Z" style="fill:#f2d0b6"/><path d="M107.41,199.09a3.12,3.12,0,0,1-3.56-.44c-1.57-1.47-.33-4.12-1.25-4.69-1.64-1-6,7.73-10.74,7.43l-.33,0-.14,0a4.49,4.49,0,0,1-.92-.3c-3.31-8.44,1-20.61,7.44-26.54l.39-.05.26,0a5.09,5.09,0,0,1,.56,0l.55,0h.11a7.11,7.11,0,0,1,.92.06l.33.05a6.08,6.08,0,0,1,1.32.33c.17.06.35.14.52.22l.49.26h0q.24.15.48.33c1.61,1.25,1.35,2.85,2.85,10.19C108.94,196.73,108.36,198.45,107.41,199.09Z" style="fill:#f9ddca"/><path d="M103,195.24c0,1.06-.14,2.46.86,3.4a3.35,3.35,0,0,0,2.85.74A5.67,5.67,0,0,1,103,195.24Z" style="fill:#f2d0b6"/><path d="M97.51,171.16a6.32,6.32,0,0,1,1.4,1.7,20.87,20.87,0,0,0,.92,2.22,4.6,4.6,0,0,0,.72.67c1.87,1.34,7.43.06,8.43,1.36.49.64.17,2.29-3.37,6.68-1.62.43-6.59,1.51-10.77-1.23-.23-.16-4.55-3.05-4-5.74.08-.32.29-.83,1.91-2.32A23,23,0,0,1,97.51,171.16Z" style="fill:#440619"/><path d="M138.15,135.72c.42,4.09-1,7.43-3.61,11.52l-.38.57c-.8,1.24-1.7,2.54-2.7,4a54.33,54.33,0,0,1-6.54,7.81c-5.39,5.25-9,6.3-12.12,13.53-1.46,3.42-2.25,7-5.55,8.52-3.89,1.84-8.52-.39-9.23-.74-1.33-.63-4.93-2.34-5.92-5.8-.36-1.27-.44-2.94,3.92-12.52,1.35-2.93,2.11-4.59,2.91-6.1,2.76-5.15,16.24-27.48,27.1-31.66a8,8,0,0,1,5.15-.41,6.57,6.57,0,0,1,2.54,1.47,5.29,5.29,0,0,1,.58.58C136.66,129,137.86,133,138.15,135.72Z" style="fill:#540419"/><path d="M153.22,38.38a147.5,147.5,0,0,0-21.9,8.7c-.89.42-2,1-3.31,1.68-3,1.59-7.33,4-13.94,7.7C95,67.09,87.72,72,71.84,80.27c-5.56,2.9-10.09,5.13-12.74,6.42,3-2.39,7.46-5.93,12.9-10.19C94.7,58.7,101,54.44,106.57,51a129.53,129.53,0,0,1,16.62-9.13s1.28-.57,3.54-1.45a139.39,139.39,0,0,1,23.44-6.69A15.9,15.9,0,0,1,153.22,38.38Z" style="fill:#2effb9"/><path d="M70.32,76c-.63-4.33-6.09-6.42-11.52-8.5a41.31,41.31,0,0,0-11.74-2.67c-34.18-2.14-42-3-42.15-1.93-.15,1.44,13.79,4.41,19,5.52,8.91,1.89,10.92,1.63,15.81,3.86,6.49,3,9.73,4.43,12.4,8,1.75,2.35,3.48,5.91,7,6.44a6.57,6.57,0,0,0,2.24-.09C65.86,85.72,71,80.58,70.32,76Z" style="fill:#1a6ca3"/><path d="M60.86,85.72a5.38,5.38,0,0,0-1.76,1c-2.55,2.31-1.31,7-.92,10.77.33,3.16-.48,7.06-2.1,14.86-2.72,13.07-7.6,18.62-6.4,19.49,1.81,1.32,13.67-10.61,21.38-25.45,2.14-4.11,7.29-14.24,3.77-18-.52-.56-1.41-.93-3.2-1.67C69.53,85.78,65.14,84,60.86,85.72Z" style="fill:#1a6ca3"/><path d="M58.8,67.45A85.91,85.91,0,0,0,38.52,63c-12-1-33.4-2.13-33.61-.18,0,.37.7,1,4.16,2,2.81.16,6.83.42,11.66.9,15.21,1.51,22.81,2.27,28,4.62,9.47,4.34,14.6,11.34,19.71,9A6.07,6.07,0,0,0,70.25,78a6.36,6.36,0,0,0,.07-2C69.64,71.29,58.8,67.45,58.8,67.45Z" style="fill:#1c658e"/><path d="M74.83,88.31c-.52-.56-1.41-.93-3.2-1.67a20.13,20.13,0,0,0-5.74-1.59c1,9.92-2.8,20.16-6.1,29.35a65.12,65.12,0,0,1-9,17.3c3.59-1.61,13.52-12.36,20.26-25.34C73.2,102.25,78.35,92.12,74.83,88.31Z" style="fill:#1c658e"/><path d="M78.24,60.23c-.3-.24-1.32.4-2,.83a4.55,4.55,0,0,0-1.8,1.78c-.31.61-.14.73-.39,1.36-.54,1.35-1.53,1.26-2.14,2.33-.73,1.3.43,2.09-.29,3.59-.46,1-1,.88-1.61,2s-.73,2.41-.43,2.57C70.65,75.23,79.41,61.15,78.24,60.23Z" style="fill:#d9f3f4;opacity:0.78"/><path d="M97.19,105.31c-.31,1.42-3.32,2.78-5.14,2-.85-.39-1-1-2.18-1.51-1.58-.67-2.18.07-3.34-.59s-.87-1.64-2.13-2.64a5.08,5.08,0,0,0-.82-.48,20.51,20.51,0,0,0-2-.9c-1.47-.74-1-2.33-2.58-3.68-1.18-1-1.65-.31-2.77-1.33s-1-1.95-2.33-3.5a9,9,0,0,0-1.38-1.28c-1-.83-1.58-1.49-1.46-1.72C71.82,88.27,98.17,100.68,97.19,105.31Z" style="fill:#d9f3f4;opacity:0.78"/><path d="M172,22.29c.69-.83,3-.26,4.41.74a4,4,0,0,1,1.83,2.57c.26,1.68-.82,3.61-2,3.75C174.12,29.62,170.83,23.72,172,22.29Z" style="fill:#f9a5a5"/><path d="M96.84,102.3c-2.12.12-1.86,4.9-5.36,9-4,4.65-9.93,4.83-9.72,5.78s4.8.66,8.24,0a23.14,23.14,0,0,0,9.23-3.85c2.46-1.74,2.82-2.76,2.92-3.38.28-1.7-.87-3.22-1.92-4.62C99,103.54,98,102.24,96.84,102.3Z" style="fill:#1c658e"/><path d="M81.46,56.61C80.83,53,74.21,51.39,70.75,51c-8.06-.87-14.93,3.14-14.72,3.89s8.5-3.42,15.61.49c4,2.2,5.77,6,7.9,5.24C80.88,60.19,81.74,58.19,81.46,56.61Z" style="fill:#1c658e"/><line x1="158.85" y1="8.07" x2="159.77" y2="16.62" style="fill:none;stroke:#000;stroke-linecap:round;stroke-miterlimit:10;stroke-width:3px"/><line x1="167.65" y1="12.51" x2="164.72" y2="20.6" style="fill:none;stroke:#000;stroke-linecap:round;stroke-miterlimit:10;stroke-width:3px"/><line x1="153.74" y1="11.82" x2="156.46" y2="16.15" style="fill:none;stroke:#000;stroke-linecap:round;stroke-miterlimit:10;stroke-width:3px"/><path d="M174.73,23.78a3.77,3.77,0,0,1-.21,3.25,2.25,2.25,0,0,1-.68.59c-1.21.66-3.29.35-6.36-.11-10.89-1.63-16.57-4.31-16.88-8a5.27,5.27,0,0,1,1.62-3.9,12.71,12.71,0,0,1,2.36-1.95c2.81-1.75,6.36-1.76,10.53,0C170.07,15.66,173.78,20.38,174.73,23.78Z" style="fill:#fff"/><path d="M159.82,12.36c-4.15,1.92-7.49,5.28-7.22,10.42a4.75,4.75,0,0,1-2-3.27,5.27,5.27,0,0,1,1.62-3.9,12.71,12.71,0,0,1,2.36-1.95A9,9,0,0,1,159.82,12.36Z" style="fill:#f4f4f4"/><path d="M161.78,23.78c2.11,3.63,7.34,5.17,8.94,3.3s-.09-7.53-3.5-9.64c-1.58-1-4.4-1.73-5.83-.07S160.8,22.09,161.78,23.78Z" style="fill:#020202"/><path d="M190.06,33.48h0l.15.3a.51.51,0,0,0,0,.1.76.76,0,0,1,0,.11h0a6,6,0,0,0-.84.35c-2.65,1.45-5.33,2.84-8.06,4.13-1,.51-2.12,1-3.19,1.47-3.85,1.7-7.79,2.44-11.7,3.83-2.49.88-4.48,3.19-3.71,6,1.71,6.27,8.12,6.72,13.61,6a44.74,44.74,0,0,0,8.95-2.16A33.8,33.8,0,0,0,189.09,52c1-.48,2-1,3-1.44-.27.48-.56,1-.84,1.43a147.05,147.05,0,0,0-7.83,14C180.32,72.69,177,78.75,172,84.3c-5.33,5.92-10.61,12.46-17.26,17-6.91,4.67-15.2,7-23.32,8.46-14.74,2.69-29.31,2.8-40.73-8.26C81.77,92.8,73.6,84.58,60.42,86h0q-.49,0-1,.12l-.28,0c.32-1,2.32-1.91,5.13-4.66,2.15-2.09,3.43-3.85,7.63-11,3.9-6.7,5.86-10,7.54-13.27,4.88-9.41,27.93-36,60.68-39.07C164.69,15.88,186.82,27.58,190.06,33.48Z" style="fill:#1c658e"/><path d="M190.21,33.78a.51.51,0,0,0,0,.1.76.76,0,0,1,0,.11,2,2,0,0,1,.16,1c-.21,1.78-3.85,5.8-8.43,8.1l-.64.31-.38.19a59.8,59.8,0,0,1-11.63,4,18.1,18.1,0,0,0,10,2.6c7.16-.46,10.79-5.8,13.79-6.13a2.49,2.49,0,0,1,1.2.17A3.35,3.35,0,0,1,196,45.83c1.84,3.42,1.63,11.17.08,18.05a59,59,0,0,1-12.95,25q-1,1.19-2.07,2.34a84.81,84.81,0,0,1-31.43,21c-4.7,1.59-20.38,6.68-38.86,2-4.68-1.2-11.49-2.94-18.75-8C82.7,99.78,79.73,92.82,69.49,89a34.3,34.3,0,0,0-10.31-2.13l1.23-.79h0c3.47-2.23,8.44-5.48,14.31-9.48,35-23.75,37.55-30.08,54.13-36.56s32.35-7.2,38.71-7.43a127.75,127.75,0,0,1,18.4.69C187.47,33.42,188.9,33.6,190.21,33.78Z" style="fill:#e8fafc"/><path d="M181,52.24a15.71,15.71,0,0,0,7.54-2.54,19.42,19.42,0,0,0,4.89-4.14c.1-.14.79-1.09.51-1.43-.09-.11-.28-.17-.94,0a10.84,10.84,0,0,0-4.47,2.45,14.63,14.63,0,0,1-5,2.82,16.41,16.41,0,0,1-8.47.19,21.47,21.47,0,0,1-5.6-1.94A16.1,16.1,0,0,0,173,50.31,15.15,15.15,0,0,0,181,52.24Z" style="fill:#c7e5e5"/><path d="M189.44,33.58a25.73,25.73,0,0,1-4.37,5.11,32.07,32.07,0,0,1-6.38,4.24c-2.31,1.29-5.5,3-9.46,4.71l.14,0a58.64,58.64,0,0,0,12-4.21l.64-.31c4.58-2.3,8.22-6.32,8.43-8.1a2.26,2.26,0,0,0-.25-1.21Z" style="fill:#d9f3f4"/><path d="M173,46.63a54.46,54.46,0,0,0,8.35-3.22l.64-.31A23,23,0,0,0,188.63,38a39.36,39.36,0,0,1-5.35,4A39.84,39.84,0,0,1,173,46.63Z" style="fill:#c7e0e0"/><path d="M194.4,44.25a33,33,0,0,1-1,8.3c-.91,3.6-2.37,6.79-5.36,11.44A74.29,74.29,0,0,1,176,79.2c-6.2,5.91-15.37,14.71-30.51,20-13.48,4.69-31.53,5.5-42.68,1.75-4.81-1.61-9.06-4.22-13.39-6.69-7-4-6.83-3.53-7.91-4-11.09-4.8-22.34-4.08-22.41-3.55,0,.33,4.45.09,10.39,2.28C80,92.83,82.51,99.57,92,106.24c7.13,5,13.83,6.71,18.75,8,18.48,4.71,34.16-.38,38.86-2,16.58-5.62,26.44-15.75,31.43-21a73.84,73.84,0,0,0,9-11.59c4.17-6.67,12.05-19.25,7.7-30A18.31,18.31,0,0,0,194.4,44.25Z" style="fill:#d9f3f4"/><path d="M150.18,40.3c-6.31,4-11.62,7.25-15.53,9.62,0,0-3.2,1.93-8.37,4.94-11,6.37-30.9,17.55-47.87,25.09a120.23,120.23,0,0,1-14.95,5.54c-1.83.54-3.35.94-4.36,1.2,5.49-3.52,9.81-6.67,12.73-8.9,11.42-8.7,20.56-17.7,32.08-25.09L106.57,51a131.88,131.88,0,0,1,16-8.85l.63-.28s1.29-.58,3.54-1.45a139.24,139.24,0,0,1,19.58-5.9c.19.18.37.37.54.55a17.52,17.52,0,0,1,3,4.36C149.91,39.65,150,39.94,150.18,40.3Z" style="fill:#f1f9bb"/><path d="M149.82,39.45a156,156,0,0,0-18.5,7.64c-.9.41-2,.95-3.31,1.68-1.13.59-2.45,1.31-4,2.17-2.57,1.41-5.81,3.22-9.92,5.52C95,67.09,87.73,72,71.84,80.26c-5.57,2.9-10.09,5.14-12.74,6.43,5.49-3.52,9.81-6.67,12.73-8.9,11.42-8.7,20.56-17.7,32.08-25.09L106.57,51a131.88,131.88,0,0,1,16-8.85l.63-.28s1.29-.58,3.54-1.45a139.24,139.24,0,0,1,19.58-5.9c.19.18.37.37.54.55A16.42,16.42,0,0,1,149.82,39.45Z" style="fill:#f2e991"/><path d="M79.44,57.25a4.4,4.4,0,0,1-1.59-2.73c-.39-3.67,5.7-6.71,10.21-9.79a53.3,53.3,0,0,0,16.57-18.45c6.28-12.18.5-20.09,6.65-24.42C116.44-1.77,125,.56,129.7,3.38a24.09,24.09,0,0,1,7.44,7.3,26.47,26.47,0,0,1,3.94,9.25,118.9,118.9,0,0,0-23.83,8.54A121,121,0,0,0,79.44,57.25Z" style="fill:#1a6ca3"/><path d="M137.14,10.68a24.09,24.09,0,0,0-7.44-7.3C125,.56,116.44-1.77,111.28,1.86a6.93,6.93,0,0,0-1.2,1.06c12.53-2.49,24.06,5.95,28.21,17.72,1-.25,1.88-.49,2.79-.71A26.47,26.47,0,0,0,137.14,10.68Z" style="fill:#1c658e"/><path d="M107,20.09a28.82,28.82,0,0,1-2.36,6.19,44.24,44.24,0,0,1-2.8,4.62c2.71-.77,5.13.3,7.19,2,2.6-1.53,5.33-3,8.23-4.41,3.11-1.51,6.15-2.81,9.09-3.94C120.69,20.15,113.68,17.66,107,20.09Z" style="fill:#207db0"/><path d="M101.83,30.9a55.43,55.43,0,0,1-6,7.23,14.16,14.16,0,0,1,4,.7c2.83-2,5.88-4,9.17-5.95C107,31.2,104.54,30.13,101.83,30.9Z" style="fill:#2283b4"/><path d="M88.56,44.36l-.5.37c-1.7,1.16-3.64,2.32-5.36,3.51a37.43,37.43,0,0,1,3.9,1.58c1.52-1.44,3.13-2.91,4.87-4.4A13.75,13.75,0,0,0,88.56,44.36Z" style="fill:#2489b9"/><path d="M78.31,52.47a4,4,0,0,0-.44,1.35A7.35,7.35,0,0,1,81.3,55.2L82.41,54A9.52,9.52,0,0,0,78.31,52.47Z" style="fill:#2894c1"/><path d="M77.87,53.82a2.72,2.72,0,0,0,0,.7,4.4,4.4,0,0,0,1.59,2.73c.58-.66,1.21-1.35,1.86-2A7.35,7.35,0,0,0,77.87,53.82Z" style="fill:#268ebd"/><path d="M79.21,51.16a7,7,0,0,0-.9,1.31A9.52,9.52,0,0,1,82.41,54l1.23-1.27A10.35,10.35,0,0,0,79.21,51.16Z" style="fill:#2a9ac5"/><path d="M82.7,48.24a19.51,19.51,0,0,0-3.49,2.92,10.35,10.35,0,0,1,4.43,1.59c.94-1,1.92-1.93,3-2.93A37.43,37.43,0,0,0,82.7,48.24Z" style="fill:#268ebd"/><path d="M95.87,38.13a51.61,51.61,0,0,1-7.31,6.23,13.75,13.75,0,0,1,2.91,1.06c2.55-2.19,5.32-4.4,8.38-6.59A14.16,14.16,0,0,0,95.87,38.13Z" style="fill:#2489b9"/><path d="M108.15,8.16c-.28,3.18.06,7.14-1.16,11.93,6.69-2.43,13.7.06,19.35,4.44,3.15-1.21,6.18-2.22,9.07-3.07C129.37,12.7,118.83,4.81,108.15,8.16Z" style="fill:#1e77ac"/><path d="M110.08,2.92a8.34,8.34,0,0,0-1.93,5.24c10.68-3.35,21.22,4.54,27.26,13.3,1-.29,1.94-.57,2.88-.82C134.14,8.87,122.61.43,110.08,2.92Z" style="fill:#1c72a7"/><path d="M120.83,85.85c-2.47-2.12-.48-6.35-1.93-7.22-2.12-1.27-9.75,4.42-13.65,12.78-2.56,5.49-3.64,12.45-2,13.25.9.42,1.88-1.2,4.83-3.42,7.42-5.61,12.86-4.15,16.15-9.39.36-.57,1.76-2.8,1-4.18S122.38,87.17,120.83,85.85Z" style="fill:#d9f3f4"/><path d="M120.88,84.45c-2.59-3.23-.78-6.71-2.29-7.31-2.29-.91-9.06,6.17-13.74,13.93-3.94,6.52-8,15.76-6.1,16.75s6.25-6.65,19.34-13.76c3.17-1.72,7.52-3.77,7.38-5.76C125.37,86.8,122.83,86.89,120.88,84.45Z" style="fill:#1a6ca3"/><path d="M120.61,85.36A6.44,6.44,0,0,1,119,83.28a6.65,6.65,0,0,1-.68-2.5A57.53,57.53,0,0,0,108.81,90a56.83,56.83,0,0,0-7.43,11.89,43.34,43.34,0,0,1,11.47-12.17A42.73,42.73,0,0,1,120.61,85.36Z" style="fill:#2283b4"/><path d="M105.92,92.07a35.66,35.66,0,0,1,13.55-10.85c-.33-2,.12-3.68-.88-4.08-2.29-.91-9.06,6.17-13.74,13.93-3.71,6.15-7.53,14.71-6.36,16.5C100.37,102.1,102.27,96.76,105.92,92.07Z" style="fill:#1c658e"/><path d="M149.9,41.42c2,4.53,1.9,9.78-.67,13.53-3,4.35-8.43,5.29-10.06,5.57-1.4.25-6.37,1.1-10.33-1.37a14,14,0,0,1-5.29-6.84,19.77,19.77,0,0,1-1.3-8.63,13,13,0,0,1,4.7-9.52c5.21-4,13.58-3,18.74,1.45.36.32.72.66,1.06,1A16.31,16.31,0,0,1,149.9,41.42Z" style="fill:#d9f3f4"/><path d="M121.68,76.92a37.26,37.26,0,0,0,18.39,15.8,36.59,36.59,0,0,0,19.29,1.91" style="fill:none;stroke:#c7e5e5;stroke-linecap:round;stroke-linejoin:round"/><path d="M142.88,58.76A9.59,9.59,0,0,1,144,65c-1,5.42-7.27,7.6-8.19,7.93-1.31.45-7.71,2.71-12.14-1.32S120.91,60.93,121,60.51a12,12,0,0,1,10-8.9C136.86,51,141.16,55.35,142.88,58.76Z" style="fill:#f9a5a5"/><line x1="119.06" y1="42.63" x2="127.05" y2="44.66" style="fill:none;stroke:#000;stroke-linecap:round;stroke-miterlimit:10;stroke-width:3px"/><line x1="120.28" y1="32.69" x2="127.29" y2="37.68" style="fill:none;stroke:#000;stroke-linecap:round;stroke-miterlimit:10;stroke-width:3px"/><line x1="128.05" y1="29.12" x2="130.99" y2="37.21" style="fill:none;stroke:#000;stroke-linecap:round;stroke-miterlimit:10;stroke-width:3px"/><path d="M149.38,53.4a11.52,11.52,0,0,1-4,3.58,18.44,18.44,0,0,1-5.9,2c-5.18.91-8.45-.28-10.28-1.43a11.87,11.87,0,0,1-2.88-2.64A15.34,15.34,0,0,1,124,50.94a2.08,2.08,0,0,1-.13-.3,19.32,19.32,0,0,1-1.31-8.47s0-.05,0-.07a12.9,12.9,0,0,1,4.65-9.51c4.92-3.81,13.26-3.15,18.6,1.49l.5.46c.19.18.37.37.54.55a16.42,16.42,0,0,1,3,4.36l.19.43.17.42C152,44.92,151.73,49.91,149.38,53.4Z" style="fill:#fff"/><path d="M133.06,30.26c-.34.22-8.68,5.69-8.19,14.88.11,2,.86,8,6.25,11.48,6,3.84,12.46,1.19,13,1-.54.27-8.62,4.12-15-.08a14.58,14.58,0,0,1-5.29-6.84,19.67,19.67,0,0,1-1.31-8.55,12.87,12.87,0,0,1,4.65-9.51A12.29,12.29,0,0,1,133.06,30.26Z" style="fill:#f4f4f4"/><path d="M127.7,49.86A6.68,6.68,0,0,0,135,53.3,7.37,7.37,0,0,0,140.48,48c1.07-5-5-10.53-9.09-9.06C128.13,40.08,125.58,45.81,127.7,49.86Z"/><path d="M190.15,33.63h0l.13.27a.39.39,0,0,0,0,.09l0,.09h0a2,2,0,0,1,.19.9c-.09,1.54-2.85,4.89-6.47,6.69l-.5.24-.3.15c-.68-.92-.57-3,.06-4.49a2.39,2.39,0,0,1,1.31-1.48c.7-.2,1.59.26,1.92-.26s-.11-.78-.06-1.56a2,2,0,0,1,.29-1,1.52,1.52,0,0,1,1-.61A3,3,0,0,1,190.15,33.63Z" style="fill:#e87e7c"/><path d="M194.87,50.12A5.31,5.31,0,0,1,191.22,52a8.45,8.45,0,0,1-2.13,0c-1.41-.17-2.52-.67-2.64-1.15-.2-.83,2.58-1.31,5.35-4.69a15.08,15.08,0,0,0,1.4-2h.35l.33,0a3,3,0,0,1,1.42,1.2A4.59,4.59,0,0,1,194.87,50.12Z" style="fill:#e87e7c"/><path d="M92.62,195.63a11.28,11.28,0,0,0-1.16,4.47,11,11,0,0,0,.07,1.25l-.14,0a12.14,12.14,0,0,1-.35-3.19c.18-4.41,3.71-7.68,3.9-7.56S94.17,191.94,92.62,195.63Z" style="fill:#ddb397"/><path d="M87.86,189.44a22.24,22.24,0,0,0-.6,4.72,16.85,16.85,0,0,0,.68,4.76c-.18-.22-.34-.45-.5-.69a12.6,12.6,0,0,1-.64-4.69,11.3,11.3,0,0,1,1.14-4.61s0,0,0,0A1.68,1.68,0,0,1,87.86,189.44Z" style="fill:#ddb397"/><path d="M211.3,79a30.35,30.35,0,0,0,2.5-9.73c.09-1.12.12-2.22.12-3.15a4.26,4.26,0,0,1,.66.22c0,.4.07.81.09,1.2C214.77,69.78,214.47,73.85,211.3,79Z" style="fill:#ddb397"/><path d="M218.68,75.18a14.16,14.16,0,0,1-1.89,4.9,19.56,19.56,0,0,0,1.38-5.9,19.23,19.23,0,0,0-.52-5.88,9.47,9.47,0,0,1,.73.69A14.49,14.49,0,0,1,218.68,75.18Z" style="fill:#ddb397"/></g></svg>